<svg xmlns="http://www.w3.org/2000/svg" xmlns:xlink="http://www.w3.org/1999/xlink" width="3840" zoomAndPan="magnify" viewBox="0 0 2880 809.999993" height="1080" preserveAspectRatio="xMidYMid meet" version="1.0"><defs><g/><clipPath id="49947ca943"><path d="M 150 48.75 L 862.5 48.75 L 862.5 761.25 L 150 761.25 Z M 150 48.75 " clip-rule="nonzero"/></clipPath><clipPath id="c2d0053d5a"><path d="M 194.296875 48.75 L 818.203125 48.75 C 842.667969 48.75 862.5 68.582031 862.5 93.046875 L 862.5 716.953125 C 862.5 741.417969 842.667969 761.25 818.203125 761.25 L 194.296875 761.25 C 169.832031 761.25 150 741.417969 150 716.953125 L 150 93.046875 C 150 68.582031 169.832031 48.75 194.296875 48.75 Z M 194.296875 48.75 " clip-rule="nonzero"/></clipPath><clipPath id="ca99cb95da"><path d="M 0 0.75 L 712.5 0.75 L 712.5 713.25 L 0 713.25 Z M 0 0.75 " clip-rule="nonzero"/></clipPath><clipPath id="a624bf49af"><path d="M 44.296875 0.75 L 668.203125 0.75 C 692.667969 0.75 712.5 20.582031 712.5 45.046875 L 712.5 668.953125 C 712.5 693.417969 692.667969 713.25 668.203125 713.25 L 44.296875 713.25 C 19.832031 713.25 0 693.417969 0 668.953125 L 0 45.046875 C 0 20.582031 19.832031 0.75 44.296875 0.75 Z M 44.296875 0.75 " clip-rule="nonzero"/></clipPath><clipPath id="4ee05355b2"><rect x="0" width="713" y="0" height="714"/></clipPath><clipPath id="9ff7859dbd"><path d="M 525.921875 124.328125 L 788.421875 124.328125 L 788.421875 386.828125 L 525.921875 386.828125 Z M 525.921875 124.328125 " clip-rule="nonzero"/></clipPath><clipPath id="8af83b9668"><path d="M 570.921875 124.328125 L 743.421875 124.328125 C 755.359375 124.328125 766.804688 129.070312 775.242188 137.507812 C 783.683594 145.949219 788.421875 157.394531 788.421875 169.328125 L 788.421875 341.828125 C 788.421875 353.761719 783.683594 365.207031 775.242188 373.648438 C 766.804688 382.085938 755.359375 386.828125 743.421875 386.828125 L 570.921875 386.828125 C 558.988281 386.828125 547.542969 382.085938 539.101562 373.648438 C 530.664062 365.207031 525.921875 353.761719 525.921875 341.828125 L 525.921875 169.328125 C 525.921875 157.394531 530.664062 145.949219 539.101562 137.507812 C 547.542969 129.070312 558.988281 124.328125 570.921875 124.328125 Z M 570.921875 124.328125 " clip-rule="nonzero"/></clipPath><clipPath id="aad3794b77"><path d="M 0.921875 0.328125 L 263.421875 0.328125 L 263.421875 262.828125 L 0.921875 262.828125 Z M 0.921875 0.328125 " clip-rule="nonzero"/></clipPath><clipPath id="741cc6859c"><path d="M 45.921875 0.328125 L 218.421875 0.328125 C 230.359375 0.328125 241.804688 5.070312 250.242188 13.507812 C 258.683594 21.949219 263.421875 33.394531 263.421875 45.328125 L 263.421875 217.828125 C 263.421875 229.761719 258.683594 241.207031 250.242188 249.648438 C 241.804688 258.085938 230.359375 262.828125 218.421875 262.828125 L 45.921875 262.828125 C 33.988281 262.828125 22.542969 258.085938 14.101562 249.648438 C 5.664062 241.207031 0.921875 229.761719 0.921875 217.828125 L 0.921875 45.328125 C 0.921875 33.394531 5.664062 21.949219 14.101562 13.507812 C 22.542969 5.070312 33.988281 0.328125 45.921875 0.328125 Z M 45.921875 0.328125 " clip-rule="nonzero"/></clipPath><clipPath id="02fa3ed00f"><rect x="0" width="264" y="0" height="263"/></clipPath><clipPath id="302db55baf"><path d="M 224.078125 124.328125 L 486.578125 124.328125 L 486.578125 386.828125 L 224.078125 386.828125 Z M 224.078125 124.328125 " clip-rule="nonzero"/></clipPath><clipPath id="0bca2d84f7"><path d="M 269.078125 124.328125 L 441.578125 124.328125 C 453.511719 124.328125 464.957031 129.070312 473.398438 137.507812 C 481.835938 145.949219 486.578125 157.394531 486.578125 169.328125 L 486.578125 341.828125 C 486.578125 353.761719 481.835938 365.207031 473.398438 373.648438 C 464.957031 382.085938 453.511719 386.828125 441.578125 386.828125 L 269.078125 386.828125 C 257.140625 386.828125 245.695312 382.085938 237.257812 373.648438 C 228.816406 365.207031 224.078125 353.761719 224.078125 341.828125 L 224.078125 169.328125 C 224.078125 157.394531 228.816406 145.949219 237.257812 137.507812 C 245.695312 129.070312 257.140625 124.328125 269.078125 124.328125 Z M 269.078125 124.328125 " clip-rule="nonzero"/></clipPath><clipPath id="78ac45ab89"><path d="M 0.078125 0.328125 L 262.578125 0.328125 L 262.578125 262.828125 L 0.078125 262.828125 Z M 0.078125 0.328125 " clip-rule="nonzero"/></clipPath><clipPath id="8fb6f7e750"><path d="M 45.078125 0.328125 L 217.578125 0.328125 C 229.511719 0.328125 240.957031 5.070312 249.398438 13.507812 C 257.835938 21.949219 262.578125 33.394531 262.578125 45.328125 L 262.578125 217.828125 C 262.578125 229.761719 257.835938 241.207031 249.398438 249.648438 C 240.957031 258.085938 229.511719 262.828125 217.578125 262.828125 L 45.078125 262.828125 C 33.140625 262.828125 21.695312 258.085938 13.257812 249.648438 C 4.816406 241.207031 0.078125 229.761719 0.078125 217.828125 L 0.078125 45.328125 C 0.078125 33.394531 4.816406 21.949219 13.257812 13.507812 C 21.695312 5.070312 33.140625 0.328125 45.078125 0.328125 Z M 45.078125 0.328125 " clip-rule="nonzero"/></clipPath><clipPath id="7d74262995"><rect x="0" width="263" y="0" height="263"/></clipPath><clipPath id="25041a4139"><path d="M 224.078125 423.171875 L 486.578125 423.171875 L 486.578125 685.671875 L 224.078125 685.671875 Z M 224.078125 423.171875 " clip-rule="nonzero"/></clipPath><clipPath id="8d0670da6f"><path d="M 269.078125 423.171875 L 441.578125 423.171875 C 453.511719 423.171875 464.957031 427.914062 473.398438 436.351562 C 481.835938 444.789062 486.578125 456.238281 486.578125 468.171875 L 486.578125 640.671875 C 486.578125 652.605469 481.835938 664.050781 473.398438 672.492188 C 464.957031 680.929688 453.511719 685.671875 441.578125 685.671875 L 269.078125 685.671875 C 257.140625 685.671875 245.695312 680.929688 237.257812 672.492188 C 228.816406 664.050781 224.078125 652.605469 224.078125 640.671875 L 224.078125 468.171875 C 224.078125 456.238281 228.816406 444.789062 237.257812 436.351562 C 245.695312 427.914062 257.140625 423.171875 269.078125 423.171875 Z M 269.078125 423.171875 " clip-rule="nonzero"/></clipPath><clipPath id="96a90a07d7"><path d="M 0.078125 0.171875 L 262.578125 0.171875 L 262.578125 262.671875 L 0.078125 262.671875 Z M 0.078125 0.171875 " clip-rule="nonzero"/></clipPath><clipPath id="4ef1f75993"><path d="M 45.078125 0.171875 L 217.578125 0.171875 C 229.511719 0.171875 240.957031 4.914062 249.398438 13.351562 C 257.835938 21.789062 262.578125 33.238281 262.578125 45.171875 L 262.578125 217.671875 C 262.578125 229.605469 257.835938 241.050781 249.398438 249.492188 C 240.957031 257.929688 229.511719 262.671875 217.578125 262.671875 L 45.078125 262.671875 C 33.140625 262.671875 21.695312 257.929688 13.257812 249.492188 C 4.816406 241.050781 0.078125 229.605469 0.078125 217.671875 L 0.078125 45.171875 C 0.078125 33.238281 4.816406 21.789062 13.257812 13.351562 C 21.695312 4.914062 33.140625 0.171875 45.078125 0.171875 Z M 45.078125 0.171875 " clip-rule="nonzero"/></clipPath><clipPath id="e6dae918af"><rect x="0" width="263" y="0" height="263"/></clipPath><clipPath id="dae95bfcfb"><path d="M 525.921875 423.171875 L 788.421875 423.171875 L 788.421875 685.671875 L 525.921875 685.671875 Z M 525.921875 423.171875 " clip-rule="nonzero"/></clipPath><clipPath id="be7f499683"><path d="M 570.921875 423.171875 L 743.421875 423.171875 C 755.359375 423.171875 766.804688 427.914062 775.242188 436.351562 C 783.683594 444.789062 788.421875 456.238281 788.421875 468.171875 L 788.421875 640.671875 C 788.421875 652.605469 783.683594 664.050781 775.242188 672.492188 C 766.804688 680.929688 755.359375 685.671875 743.421875 685.671875 L 570.921875 685.671875 C 558.988281 685.671875 547.542969 680.929688 539.101562 672.492188 C 530.664062 664.050781 525.921875 652.605469 525.921875 640.671875 L 525.921875 468.171875 C 525.921875 456.238281 530.664062 444.789062 539.101562 436.351562 C 547.542969 427.914062 558.988281 423.171875 570.921875 423.171875 Z M 570.921875 423.171875 " clip-rule="nonzero"/></clipPath><clipPath id="42062b9370"><path d="M 0.921875 0.171875 L 263.421875 0.171875 L 263.421875 262.671875 L 0.921875 262.671875 Z M 0.921875 0.171875 " clip-rule="nonzero"/></clipPath><clipPath id="c09ff31906"><path d="M 45.921875 0.171875 L 218.421875 0.171875 C 230.359375 0.171875 241.804688 4.914062 250.242188 13.351562 C 258.683594 21.789062 263.421875 33.238281 263.421875 45.171875 L 263.421875 217.671875 C 263.421875 229.605469 258.683594 241.050781 250.242188 249.492188 C 241.804688 257.929688 230.359375 262.671875 218.421875 262.671875 L 45.921875 262.671875 C 33.988281 262.671875 22.542969 257.929688 14.101562 249.492188 C 5.664062 241.050781 0.921875 229.605469 0.921875 217.671875 L 0.921875 45.171875 C 0.921875 33.238281 5.664062 21.789062 14.101562 13.351562 C 22.542969 4.914062 33.988281 0.171875 45.921875 0.171875 Z M 45.921875 0.171875 " clip-rule="nonzero"/></clipPath><clipPath id="e8da1c78ae"><rect x="0" width="264" y="0" height="263"/></clipPath></defs><g fill="#000000" fill-opacity="1"><g transform="translate(899.999967, 468.374996)"><g><path d="M 78.046875 -114.8125 C 86.785156 -114.8125 94.453125 -113.554688 101.046875 -111.046875 C 107.640625 -108.535156 112.765625 -105.09375 116.421875 -100.71875 C 120.078125 -96.351562 121.90625 -91.519531 121.90625 -86.21875 C 121.90625 -80.476562 119.929688 -75.742188 115.984375 -72.015625 C 112.046875 -68.296875 106.707031 -66.4375 99.96875 -66.4375 C 93.09375 -66.4375 87.71875 -68.191406 83.84375 -71.703125 C 79.976562 -75.210938 78.046875 -79.976562 78.046875 -86 C 78.046875 -88.863281 78.472656 -91.875 79.328125 -95.03125 C 73.316406 -93.457031 67.976562 -90.335938 63.3125 -85.671875 C 58.65625 -81.015625 55.539062 -74.890625 53.96875 -67.296875 C 53.101562 -62.992188 52.671875 -59.125 52.671875 -55.6875 C 52.671875 -47.945312 54.820312 -42.066406 59.125 -38.046875 C 63.425781 -34.035156 69.585938 -32.03125 77.609375 -32.03125 C 82.203125 -32.03125 86.144531 -32.492188 89.4375 -33.421875 C 92.738281 -34.359375 96.109375 -35.613281 99.546875 -37.1875 C 102.410156 -38.625 104.488281 -39.34375 105.78125 -39.34375 C 106.632812 -39.34375 107.207031 -39.160156 107.5 -38.796875 C 107.789062 -38.441406 107.9375 -37.691406 107.9375 -36.546875 C 108.070312 -31.242188 105.878906 -25.691406 101.359375 -19.890625 C 96.847656 -14.085938 90.613281 -9.210938 82.65625 -5.265625 C 74.707031 -1.328125 65.789062 0.640625 55.90625 0.640625 C 45.582031 0.640625 36.441406 -1.253906 28.484375 -5.046875 C 20.535156 -8.847656 14.375 -14.296875 10 -21.390625 C 5.625 -28.484375 3.4375 -36.757812 3.4375 -46.21875 C 3.4375 -50.664062 4.007812 -55.613281 5.15625 -61.0625 C 9.03125 -78.832031 17.59375 -92.234375 30.84375 -101.265625 C 44.101562 -110.296875 59.835938 -114.8125 78.046875 -114.8125 Z M 78.046875 -114.8125 "/></g></g></g><g fill="#000000" fill-opacity="1"><g transform="translate(1016.527057, 468.374996)"><g><path d="M 68.578125 -158.890625 C 76.898438 -158.890625 83.03125 -157.3125 86.96875 -154.15625 C 90.90625 -151 92.875 -146.695312 92.875 -141.25 C 92.875 -138.101562 92.375 -135.023438 91.375 -132.015625 L 57.625 -22.359375 C 57.1875 -20.640625 56.96875 -19.132812 56.96875 -17.84375 C 56.96875 -15.976562 57.328125 -14.507812 58.046875 -13.4375 C 58.765625 -12.363281 59.769531 -11.320312 61.0625 -10.3125 C 62.0625 -9.3125 62.773438 -8.488281 63.203125 -7.84375 C 63.640625 -7.195312 63.710938 -6.375 63.421875 -5.375 C 62.703125 -3.507812 61.269531 -2.144531 59.125 -1.28125 C 56.976562 -0.425781 53.679688 0 49.234375 0 L 0.21875 0 C -3.507812 0 -6.234375 -0.609375 -7.953125 -1.828125 C -9.671875 -3.046875 -10.242188 -4.660156 -9.671875 -6.671875 C -9.097656 -8.390625 -7.59375 -9.894531 -5.15625 -11.1875 C -3.007812 -12.332031 -1.222656 -13.691406 0.203125 -15.265625 C 1.640625 -16.835938 2.863281 -19.347656 3.875 -22.796875 L 36.546875 -130.078125 C 36.972656 -131.367188 37.1875 -132.441406 37.1875 -133.296875 C 37.1875 -134.878906 36.789062 -136.171875 36 -137.171875 C 35.21875 -138.171875 34.179688 -139.175781 32.890625 -140.1875 C 31.460938 -141.332031 30.425781 -142.332031 29.78125 -143.1875 C 29.132812 -144.050781 29.023438 -145.195312 29.453125 -146.625 C 30.316406 -149.925781 34.832031 -152.796875 43 -155.234375 C 51.164062 -157.671875 59.691406 -158.890625 68.578125 -158.890625 Z M 68.578125 -158.890625 "/></g></g></g><g fill="#000000" fill-opacity="1"><g transform="translate(1095.215106, 468.374996)"><g><path d="M 72.890625 -114.8125 C 91.085938 -114.8125 104.269531 -111.90625 112.4375 -106.09375 C 120.613281 -100.289062 124.703125 -92.875 124.703125 -83.84375 C 124.703125 -81.125 124.414062 -78.617188 123.84375 -76.328125 C 121.6875 -66.867188 115.695312 -60.09375 105.875 -56 C 96.0625 -51.914062 84.492188 -49.875 71.171875 -49.875 C 64.429688 -49.875 58.125 -50.304688 52.25 -51.171875 C 52.101562 -43.710938 54.109375 -38.476562 58.265625 -35.46875 C 62.421875 -32.457031 68.226562 -30.953125 75.6875 -30.953125 C 79.125 -30.953125 82.414062 -31.347656 85.5625 -32.140625 C 88.71875 -32.929688 92.734375 -34.113281 97.609375 -35.6875 C 101.617188 -37.125 104.34375 -37.84375 105.78125 -37.84375 C 107.351562 -37.84375 108.140625 -36.910156 108.140625 -35.046875 C 108.285156 -30.023438 106.421875 -24.753906 102.546875 -19.234375 C 98.679688 -13.722656 92.945312 -9.03125 85.34375 -5.15625 C 77.75 -1.289062 68.578125 0.640625 57.828125 0.640625 C 41.921875 0.640625 28.878906 -3.367188 18.703125 -11.390625 C 8.523438 -19.421875 3.4375 -31.101562 3.4375 -46.4375 C 3.4375 -50.738281 4.007812 -55.753906 5.15625 -61.484375 C 8.738281 -79.117188 16.585938 -92.414062 28.703125 -101.375 C 40.816406 -110.332031 55.546875 -114.8125 72.890625 -114.8125 Z M 53.75 -64.0625 C 54.320312 -63.925781 55.109375 -63.859375 56.109375 -63.859375 C 62.128906 -63.859375 66.71875 -66.648438 69.875 -72.234375 C 73.03125 -77.828125 74.535156 -84.0625 74.390625 -90.9375 C 74.242188 -94.957031 73.097656 -96.96875 70.953125 -96.96875 C 69.367188 -96.96875 67.503906 -95.710938 65.359375 -93.203125 C 63.210938 -90.691406 61.097656 -86.925781 59.015625 -81.90625 C 56.941406 -76.894531 55.1875 -70.945312 53.75 -64.0625 Z M 53.75 -64.0625 "/></g></g></g><g fill="#000000" fill-opacity="1"><g transform="translate(1215.612073, 468.374996)"><g><path d="M 76.75 -113.734375 C 93.238281 -113.734375 106.425781 -110.6875 116.3125 -104.59375 C 126.207031 -98.5 131.15625 -89.21875 131.15625 -76.75 C 131.15625 -72.019531 130.289062 -66.644531 128.5625 -60.625 L 119.75 -30.953125 C 119.613281 -30.378906 119.546875 -29.664062 119.546875 -28.8125 C 119.546875 -26.519531 120.472656 -25.375 122.328125 -25.375 C 124.054688 -25.375 125.523438 -26.125 126.734375 -27.625 C 127.953125 -29.132812 128.78125 -29.890625 129.21875 -29.890625 C 129.9375 -29.890625 130.546875 -29.382812 131.046875 -28.375 C 131.546875 -27.375 131.796875 -26.226562 131.796875 -24.9375 C 131.941406 -21.070312 130.472656 -17.128906 127.390625 -13.109375 C 124.304688 -9.097656 120.179688 -5.800781 115.015625 -3.21875 C 109.859375 -0.644531 104.203125 0.640625 98.046875 0.640625 C 90.585938 0.640625 84.207031 -0.71875 78.90625 -3.4375 C 73.601562 -6.164062 69.945312 -10.179688 67.9375 -15.484375 C 63.632812 -10.316406 58.546875 -6.335938 52.671875 -3.546875 C 46.796875 -0.753906 40.488281 0.640625 33.75 0.640625 C 26.15625 0.640625 19.773438 -0.828125 14.609375 -3.765625 C 9.453125 -6.703125 5.617188 -10.5 3.109375 -15.15625 C 0.609375 -19.8125 -0.640625 -24.722656 -0.640625 -29.890625 C -0.640625 -32.179688 -0.425781 -34.398438 0 -36.546875 C 2.289062 -46.441406 7.269531 -53.894531 14.9375 -58.90625 C 22.601562 -63.925781 31.742188 -66.4375 42.359375 -66.4375 C 54.253906 -66.4375 65.9375 -64.570312 77.40625 -60.84375 L 82.78125 -75.03125 C 84.632812 -81.050781 85.5625 -85.710938 85.5625 -89.015625 C 85.425781 -92.453125 84.28125 -95.03125 82.125 -96.75 C 79.976562 -98.46875 76.679688 -99.328125 72.234375 -99.328125 C 73.097656 -97.035156 73.53125 -94.671875 73.53125 -92.234375 C 73.53125 -86.929688 71.519531 -82.34375 67.5 -78.46875 C 63.488281 -74.601562 57.757812 -72.671875 50.3125 -72.671875 C 43.289062 -72.671875 37.804688 -74.210938 33.859375 -77.296875 C 29.921875 -80.378906 27.953125 -84.210938 27.953125 -88.796875 C 27.953125 -95.960938 31.960938 -101.910156 39.984375 -106.640625 C 48.015625 -111.367188 60.269531 -113.734375 76.75 -113.734375 Z M 64.71875 -48.59375 C 60.695312 -48.59375 57.429688 -47.050781 54.921875 -43.96875 C 52.421875 -40.882812 51.171875 -37.550781 51.171875 -33.96875 C 51.171875 -31.675781 51.707031 -29.8125 52.78125 -28.375 C 53.851562 -26.945312 55.394531 -26.234375 57.40625 -26.234375 C 59.269531 -26.234375 61.3125 -26.984375 63.53125 -28.484375 C 65.75 -29.992188 67.363281 -32.253906 68.375 -35.265625 L 72.890625 -47.9375 C 70.453125 -48.375 67.726562 -48.59375 64.71875 -48.59375 Z M 64.71875 -48.59375 "/></g></g></g><g fill="#000000" fill-opacity="1"><g transform="translate(1356.218571, 468.374996)"><g><path d="M 133.078125 -29.671875 C 132.796875 -29.097656 132.65625 -28.238281 132.65625 -27.09375 C 132.65625 -26.082031 132.90625 -25.289062 133.40625 -24.71875 C 133.90625 -24.144531 134.585938 -23.859375 135.453125 -23.859375 C 137.171875 -23.859375 138.640625 -24.609375 139.859375 -26.109375 C 141.078125 -27.617188 141.898438 -28.375 142.328125 -28.375 C 143.046875 -28.375 143.617188 -27.90625 144.046875 -26.96875 C 144.472656 -26.039062 144.6875 -24.9375 144.6875 -23.65625 C 144.832031 -19.5 143.472656 -15.445312 140.609375 -11.5 C 137.742188 -7.5625 133.550781 -4.335938 128.03125 -1.828125 C 122.507812 0.679688 115.878906 1.9375 108.140625 1.9375 C 98.679688 1.9375 91.15625 -0.25 85.5625 -4.625 C 79.976562 -9 77.113281 -14.835938 76.96875 -22.140625 C 76.96875 -27.441406 78.257812 -33.390625 80.84375 -39.984375 L 92.671875 -70.953125 C 93.378906 -72.816406 93.734375 -74.320312 93.734375 -75.46875 C 93.734375 -77.332031 93.125 -78.800781 91.90625 -79.875 C 90.6875 -80.945312 89.21875 -81.484375 87.5 -81.484375 C 84.351562 -81.484375 81.34375 -80.015625 78.46875 -77.078125 C 75.601562 -74.140625 73.523438 -70.519531 72.234375 -66.21875 L 58.90625 -22.359375 C 58.332031 -20.785156 58.046875 -19.28125 58.046875 -17.84375 C 58.046875 -16.125 58.40625 -14.726562 59.125 -13.65625 C 59.84375 -12.582031 60.847656 -11.46875 62.140625 -10.3125 C 63.140625 -9.457031 63.851562 -8.671875 64.28125 -7.953125 C 64.71875 -7.234375 64.789062 -6.375 64.5 -5.375 C 63.925781 -3.507812 62.5625 -2.144531 60.40625 -1.28125 C 58.257812 -0.425781 54.894531 0 50.3125 0 L 1.296875 0 C -2.429688 0 -5.117188 -0.609375 -6.765625 -1.828125 C -8.421875 -3.046875 -9.03125 -4.660156 -8.59375 -6.671875 C -8.019531 -8.390625 -6.515625 -9.894531 -4.078125 -11.1875 C -1.929688 -12.332031 -0.144531 -13.691406 1.28125 -15.265625 C 2.71875 -16.835938 3.9375 -19.347656 4.9375 -22.796875 L 24.078125 -84.921875 C 24.367188 -85.640625 24.515625 -86.644531 24.515625 -87.9375 C 24.515625 -89.507812 24.191406 -90.722656 23.546875 -91.578125 C 22.898438 -92.441406 21.859375 -93.519531 20.421875 -94.8125 C 18.992188 -95.957031 17.992188 -96.957031 17.421875 -97.8125 C 16.847656 -98.675781 16.773438 -99.828125 17.203125 -101.265625 C 18.054688 -104.554688 22.566406 -107.457031 30.734375 -109.96875 C 38.910156 -112.476562 47.441406 -113.734375 56.328125 -113.734375 C 63.492188 -113.734375 69.15625 -111.757812 73.3125 -107.8125 C 77.46875 -103.875 79.332031 -98.394531 78.90625 -91.375 C 84.78125 -99.832031 91.015625 -105.671875 97.609375 -108.890625 C 104.203125 -112.117188 111.367188 -113.734375 119.109375 -113.734375 C 127.847656 -113.734375 134.90625 -111.082031 140.28125 -105.78125 C 145.65625 -100.476562 148.34375 -93.597656 148.34375 -85.140625 C 148.34375 -80.691406 147.628906 -76.320312 146.203125 -72.03125 Z M 133.078125 -29.671875 "/></g></g></g><g fill="#000000" fill-opacity="1"><g transform="translate(1510.154735, 468.374996)"><g><path d="M 26.875 -75.6875 C 27.875 -79.84375 29.953125 -83.066406 33.109375 -85.359375 C 36.265625 -87.648438 40.132812 -88.796875 44.71875 -88.796875 L 94.8125 -88.796875 C 102.695312 -88.796875 106.640625 -85.710938 106.640625 -79.546875 C 106.640625 -77.972656 106.492188 -76.6875 106.203125 -75.6875 C 103.484375 -66.9375 97.46875 -62.5625 88.15625 -62.5625 L 38.0625 -62.5625 C 34.1875 -62.5625 31.242188 -63.3125 29.234375 -64.8125 C 27.234375 -66.320312 26.234375 -68.507812 26.234375 -71.375 C 26.234375 -72.8125 26.445312 -74.25 26.875 -75.6875 Z M 26.875 -75.6875 "/></g></g></g><g fill="#000000" fill-opacity="1"><g transform="translate(1632.486669, 468.374996)"><g><path d="M 109.65625 -114.59375 C 120.257812 -114.59375 128.75 -110.796875 135.125 -103.203125 C 141.5 -95.609375 144.6875 -85.570312 144.6875 -73.09375 C 144.6875 -66.644531 143.898438 -60.34375 142.328125 -54.1875 C 137.742188 -35.6875 129.894531 -21.707031 118.78125 -12.25 C 107.675781 -2.789062 94.882812 1.9375 80.40625 1.9375 C 72.238281 1.9375 65.179688 0.539062 59.234375 -2.25 C 53.285156 -5.050781 48.519531 -9.03125 44.9375 -14.1875 L 37.1875 -7.53125 C 34.1875 -4.945312 31.25 -3.046875 28.375 -1.828125 C 25.507812 -0.609375 22.210938 0 18.484375 0 L 9.03125 0 C 5.445312 0 2.6875 -0.75 0.75 -2.25 C -1.1875 -3.757812 -2.15625 -5.945312 -2.15625 -8.8125 C -2.15625 -10.101562 -1.9375 -11.609375 -1.5 -13.328125 L 34.40625 -130.078125 C 34.832031 -131.367188 35.046875 -132.441406 35.046875 -133.296875 C 35.046875 -135.734375 33.539062 -138.03125 30.53125 -140.1875 C 29.09375 -141.46875 28.085938 -142.503906 27.515625 -143.296875 C 26.941406 -144.085938 26.875 -145.128906 27.3125 -146.421875 C 28.3125 -149.710938 32.859375 -152.613281 40.953125 -155.125 C 49.054688 -157.632812 57.550781 -158.890625 66.4375 -158.890625 C 74.75 -158.890625 80.875 -157.273438 84.8125 -154.046875 C 88.757812 -150.816406 90.734375 -146.484375 90.734375 -141.046875 C 90.734375 -138.035156 90.226562 -135.023438 89.21875 -132.015625 L 80.1875 -102.765625 C 88.507812 -110.648438 98.332031 -114.59375 109.65625 -114.59375 Z M 85.359375 -55.46875 C 88.222656 -65.21875 89.65625 -73.101562 89.65625 -79.125 C 89.65625 -85.71875 87.71875 -89.015625 83.84375 -89.015625 C 80.40625 -89.015625 77.179688 -87.222656 74.171875 -83.640625 L 60.203125 -38.0625 L 58.90625 -33.96875 C 58.1875 -31.820312 57.828125 -29.601562 57.828125 -27.3125 C 57.828125 -22.289062 60.195312 -19.78125 64.9375 -19.78125 C 68.375 -19.78125 71.664062 -22.285156 74.8125 -27.296875 C 77.96875 -32.316406 81.484375 -41.707031 85.359375 -55.46875 Z M 85.359375 -55.46875 "/></g></g></g><g fill="#000000" fill-opacity="1"><g transform="translate(1778.038067, 468.374996)"><g><path d="M 105.5625 -113.734375 C 113.59375 -113.734375 120.007812 -111.296875 124.8125 -106.421875 C 129.613281 -101.546875 132.015625 -95.523438 132.015625 -88.359375 C 132.015625 -85.640625 131.726562 -83.132812 131.15625 -80.84375 C 129.71875 -74.96875 126.988281 -70.453125 122.96875 -67.296875 C 118.957031 -64.140625 114.160156 -62.5625 108.578125 -62.5625 C 103.128906 -62.5625 99.003906 -63.851562 96.203125 -66.4375 C 93.410156 -69.019531 90.941406 -72.457031 88.796875 -76.75 C 87.648438 -79.1875 86.570312 -80.976562 85.5625 -82.125 C 84.5625 -83.269531 83.414062 -83.84375 82.125 -83.84375 C 80.695312 -83.84375 79.441406 -83.269531 78.359375 -82.125 C 77.285156 -80.976562 76.320312 -78.972656 75.46875 -76.109375 L 58.90625 -22.359375 C 58.625 -21.640625 58.484375 -20.566406 58.484375 -19.140625 C 58.484375 -17.273438 59.019531 -15.734375 60.09375 -14.515625 C 61.164062 -13.296875 62.632812 -12.113281 64.5 -10.96875 C 66.21875 -9.820312 67.363281 -8.890625 67.9375 -8.171875 C 68.507812 -7.453125 68.722656 -6.519531 68.578125 -5.375 C 68.296875 -3.507812 67.257812 -2.144531 65.46875 -1.28125 C 63.675781 -0.425781 60.628906 0 56.328125 0 L 1.296875 0 C -2.429688 0 -5.117188 -0.609375 -6.765625 -1.828125 C -8.421875 -3.046875 -9.03125 -4.660156 -8.59375 -6.671875 C -8.019531 -8.390625 -6.515625 -9.894531 -4.078125 -11.1875 C -1.929688 -12.332031 -0.144531 -13.691406 1.28125 -15.265625 C 2.71875 -16.835938 3.9375 -19.347656 4.9375 -22.796875 L 24.078125 -84.921875 C 24.367188 -85.640625 24.515625 -86.644531 24.515625 -87.9375 C 24.515625 -89.507812 24.191406 -90.722656 23.546875 -91.578125 C 22.898438 -92.441406 21.859375 -93.519531 20.421875 -94.8125 C 18.992188 -95.957031 17.992188 -96.957031 17.421875 -97.8125 C 16.847656 -98.675781 16.773438 -99.828125 17.203125 -101.265625 C 18.054688 -104.554688 22.566406 -107.457031 30.734375 -109.96875 C 38.910156 -112.476562 47.441406 -113.734375 56.328125 -113.734375 C 62.203125 -113.734375 67.070312 -112.40625 70.9375 -109.75 C 74.8125 -107.101562 77.320312 -103.34375 78.46875 -98.46875 C 85.351562 -108.644531 94.382812 -113.734375 105.5625 -113.734375 Z M 105.5625 -113.734375 "/></g></g></g><g fill="#000000" fill-opacity="1"><g transform="translate(1902.519933, 468.374996)"><g><path d="M 83.203125 -113.734375 C 102.691406 -113.734375 117.0625 -109.789062 126.3125 -101.90625 C 135.5625 -94.019531 140.1875 -83.703125 140.1875 -70.953125 C 140.1875 -66.648438 139.609375 -61.847656 138.453125 -56.546875 C 135.734375 -44.796875 130.644531 -34.507812 123.1875 -25.6875 C 115.738281 -16.875 106.601562 -10.066406 95.78125 -5.265625 C 84.957031 -0.460938 73.238281 1.9375 60.625 1.9375 C 40.707031 1.9375 25.984375 -2.039062 16.453125 -10 C 6.921875 -17.957031 2.15625 -28.523438 2.15625 -41.703125 C 2.15625 -46.148438 2.726562 -51.097656 3.875 -56.546875 C 6.59375 -67.722656 11.785156 -77.644531 19.453125 -86.3125 C 27.117188 -94.988281 36.503906 -101.726562 47.609375 -106.53125 C 58.722656 -111.332031 70.585938 -113.734375 83.203125 -113.734375 Z M 82.5625 -94.59375 C 79.550781 -94.59375 76.359375 -91.90625 72.984375 -86.53125 C 69.617188 -81.15625 65.644531 -71.015625 61.0625 -56.109375 C 56.476562 -41.203125 54.1875 -30.738281 54.1875 -24.71875 C 54.1875 -21.570312 54.6875 -19.457031 55.6875 -18.375 C 56.6875 -17.300781 58.046875 -16.765625 59.765625 -16.765625 C 62.773438 -16.484375 65.890625 -19.066406 69.109375 -24.515625 C 72.335938 -29.960938 76.390625 -40.566406 81.265625 -56.328125 C 85.710938 -70.234375 87.9375 -80.335938 87.9375 -86.640625 C 87.9375 -89.648438 87.46875 -91.726562 86.53125 -92.875 C 85.601562 -94.019531 84.28125 -94.59375 82.5625 -94.59375 Z M 82.5625 -94.59375 "/></g></g></g><g fill="#000000" fill-opacity="1"><g transform="translate(2043.556458, 468.374996)"><g><path d="M 201.890625 -83.203125 C 201.890625 -70.441406 197.441406 -57.394531 188.546875 -44.0625 C 179.660156 -30.738281 168.445312 -19.738281 154.90625 -11.0625 C 141.363281 -2.394531 128.070312 1.9375 115.03125 1.9375 C 104.707031 1.9375 95.960938 0.144531 88.796875 -3.4375 C 81.628906 -7.019531 76.96875 -12.179688 74.8125 -18.921875 C 69.507812 -12.472656 63.632812 -7.597656 57.1875 -4.296875 C 50.738281 -1.003906 44.003906 0.640625 36.984375 0.640625 C 27.234375 0.640625 19.3125 -1.757812 13.21875 -6.5625 C 7.125 -11.363281 4.078125 -18.421875 4.078125 -27.734375 C 4.078125 -32.609375 4.867188 -37.625 6.453125 -42.78125 L 18.484375 -84.921875 C 18.773438 -86.066406 18.921875 -86.925781 18.921875 -87.5 C 18.921875 -88.9375 18.5625 -90.15625 17.84375 -91.15625 C 17.125 -92.164062 16.117188 -93.242188 14.828125 -94.390625 C 12.679688 -96.253906 11.609375 -97.898438 11.609375 -99.328125 C 11.460938 -101.335938 12.679688 -103.488281 15.265625 -105.78125 C 17.847656 -108.070312 21.46875 -109.96875 26.125 -111.46875 C 30.78125 -112.976562 36.046875 -113.734375 41.921875 -113.734375 C 51.523438 -113.734375 59.015625 -111.40625 64.390625 -106.75 C 69.765625 -102.09375 72.453125 -96.035156 72.453125 -88.578125 C 72.453125 -85.285156 71.878906 -81.703125 70.734375 -77.828125 L 59.765625 -41.28125 C 59.191406 -39.269531 58.90625 -37.90625 58.90625 -37.1875 C 58.90625 -35.332031 59.441406 -33.898438 60.515625 -32.890625 C 61.597656 -31.890625 63.070312 -31.390625 64.9375 -31.390625 C 67.507812 -31.390625 69.691406 -32.285156 71.484375 -34.078125 C 73.273438 -35.867188 75.03125 -38.769531 76.75 -42.78125 L 89.015625 -84.921875 C 89.296875 -86.066406 89.4375 -86.925781 89.4375 -87.5 C 89.4375 -88.9375 89.078125 -90.15625 88.359375 -91.15625 C 87.648438 -92.164062 86.648438 -93.242188 85.359375 -94.390625 C 83.203125 -96.253906 82.125 -97.898438 82.125 -99.328125 C 81.988281 -101.335938 83.207031 -103.488281 85.78125 -105.78125 C 88.363281 -108.070312 91.984375 -109.96875 96.640625 -111.46875 C 101.296875 -112.976562 106.5625 -113.734375 112.4375 -113.734375 C 122.1875 -113.734375 129.710938 -111.4375 135.015625 -106.84375 C 140.316406 -102.257812 142.96875 -96.171875 142.96875 -88.578125 C 142.96875 -85.566406 142.394531 -81.984375 141.25 -77.828125 L 127.28125 -31.8125 C 126.988281 -31.101562 126.84375 -30.03125 126.84375 -28.59375 C 126.84375 -26.726562 127.488281 -25.296875 128.78125 -24.296875 C 130.070312 -23.296875 131.863281 -22.796875 134.15625 -22.796875 C 137.3125 -22.796875 141.003906 -24.191406 145.234375 -26.984375 C 149.460938 -29.773438 153.617188 -33.785156 157.703125 -39.015625 C 161.785156 -44.253906 165.117188 -50.457031 167.703125 -57.625 C 161.960938 -62.632812 157.910156 -67.578125 155.546875 -72.453125 C 153.179688 -77.328125 152 -82.34375 152 -87.5 C 152 -94.8125 154.003906 -101.007812 158.015625 -106.09375 C 162.035156 -111.1875 167.84375 -113.734375 175.4375 -113.734375 C 183.03125 -113.734375 189.335938 -111.007812 194.359375 -105.5625 C 199.378906 -100.113281 201.890625 -92.660156 201.890625 -83.203125 Z M 201.890625 -83.203125 "/></g></g></g><g fill="#000000" fill-opacity="1"><g transform="translate(2242.856408, 468.374996)"><g><path d="M 70.734375 -115.671875 C 82.628906 -115.671875 92.910156 -114.59375 101.578125 -112.4375 C 110.253906 -110.289062 116.921875 -107.28125 121.578125 -103.40625 C 126.234375 -99.539062 128.5625 -95.171875 128.5625 -90.296875 C 128.5625 -85.285156 126.59375 -81.203125 122.65625 -78.046875 C 118.71875 -74.890625 113.234375 -73.3125 106.203125 -73.3125 C 99.035156 -73.3125 92.976562 -75.101562 88.03125 -78.6875 C 83.09375 -82.269531 80.625 -86.785156 80.625 -92.234375 C 80.625 -94.097656 80.910156 -95.890625 81.484375 -97.609375 C 78.898438 -98.328125 76.609375 -98.6875 74.609375 -98.6875 C 71.023438 -98.6875 68.050781 -97.828125 65.6875 -96.109375 C 63.320312 -94.390625 62.207031 -91.953125 62.34375 -88.796875 C 62.34375 -85.066406 64.207031 -81.910156 67.9375 -79.328125 C 71.664062 -76.753906 77.6875 -73.53125 86 -69.65625 C 93.164062 -66.507812 99.078125 -63.609375 103.734375 -60.953125 C 108.390625 -58.296875 112.332031 -54.960938 115.5625 -50.953125 C 118.789062 -46.941406 120.40625 -42.210938 120.40625 -36.765625 C 120.40625 -35.617188 120.117188 -33.46875 119.546875 -30.3125 C 117.242188 -20.707031 110.859375 -13.109375 100.390625 -7.515625 C 89.929688 -1.929688 76.175781 0.859375 59.125 0.859375 C 39.914062 0.859375 24.6875 -1.71875 13.4375 -6.875 C 2.1875 -12.039062 -3.4375 -19.140625 -3.4375 -28.171875 C -3.4375 -34.328125 -1.578125 -38.984375 2.140625 -42.140625 C 5.867188 -45.296875 10.816406 -46.875 16.984375 -46.875 C 24.148438 -46.875 30.273438 -44.648438 35.359375 -40.203125 C 40.453125 -35.765625 43 -30.101562 43 -23.21875 C 43 -21.351562 42.785156 -19.421875 42.359375 -17.421875 C 45.796875 -16.554688 49.09375 -16.125 52.25 -16.125 C 55.96875 -16.125 59.046875 -17.125 61.484375 -19.125 C 63.921875 -21.132812 65.140625 -23.929688 65.140625 -27.515625 C 65.003906 -30.816406 63.359375 -33.648438 60.203125 -36.015625 C 57.046875 -38.378906 52.03125 -41.207031 45.15625 -44.5 C 38.695312 -47.507812 33.390625 -50.335938 29.234375 -52.984375 C 25.078125 -55.640625 21.53125 -58.972656 18.59375 -62.984375 C 15.65625 -67.003906 14.1875 -71.738281 14.1875 -77.1875 C 14.1875 -88.9375 19.09375 -98.285156 28.90625 -105.234375 C 38.726562 -112.191406 52.671875 -115.671875 70.734375 -115.671875 Z M 70.734375 -115.671875 "/></g></g></g><g fill="#000000" fill-opacity="1"><g transform="translate(2370.348257, 468.374996)"><g><path d="M 56.546875 -113.734375 C 64.859375 -113.734375 70.945312 -112.15625 74.8125 -109 C 78.6875 -105.851562 80.625 -101.554688 80.625 -96.109375 C 80.625 -92.804688 80.117188 -89.648438 79.109375 -86.640625 L 59.328125 -22.359375 C 58.898438 -20.640625 58.6875 -19.132812 58.6875 -17.84375 C 58.6875 -15.976562 59.046875 -14.507812 59.765625 -13.4375 C 60.484375 -12.363281 61.488281 -11.320312 62.78125 -10.3125 C 63.78125 -9.3125 64.492188 -8.488281 64.921875 -7.84375 C 65.359375 -7.195312 65.429688 -6.375 65.140625 -5.375 C 64.421875 -3.507812 62.984375 -2.144531 60.828125 -1.28125 C 58.679688 -0.425781 55.390625 0 50.953125 0 L 1.9375 0 C -1.789062 0 -4.515625 -0.609375 -6.234375 -1.828125 C -7.953125 -3.046875 -8.523438 -4.660156 -7.953125 -6.671875 C -7.378906 -8.390625 -5.875 -9.894531 -3.4375 -11.1875 C -1.289062 -12.332031 0.492188 -13.691406 1.921875 -15.265625 C 3.359375 -16.835938 4.578125 -19.347656 5.578125 -22.796875 L 24.296875 -84.921875 C 24.722656 -86.210938 24.9375 -87.289062 24.9375 -88.15625 C 24.9375 -89.726562 24.578125 -90.976562 23.859375 -91.90625 C 23.140625 -92.84375 22.066406 -93.8125 20.640625 -94.8125 C 19.203125 -95.957031 18.195312 -96.957031 17.625 -97.8125 C 17.050781 -98.675781 16.976562 -99.828125 17.40625 -101.265625 C 18.269531 -104.554688 22.785156 -107.457031 30.953125 -109.96875 C 39.117188 -112.476562 47.648438 -113.734375 56.546875 -113.734375 Z M 70.953125 -161.25 C 76.546875 -161.25 81.203125 -159.421875 84.921875 -155.765625 C 88.648438 -152.109375 90.515625 -147.628906 90.515625 -142.328125 C 90.515625 -138.597656 89.546875 -134.941406 87.609375 -131.359375 C 85.679688 -127.773438 82.957031 -124.875 79.4375 -122.65625 C 75.925781 -120.4375 72.023438 -119.328125 67.734375 -119.328125 C 62.285156 -119.328125 57.734375 -121.15625 54.078125 -124.8125 C 50.421875 -128.46875 48.519531 -133.015625 48.375 -138.453125 C 48.375 -142.035156 49.304688 -145.582031 51.171875 -149.09375 C 53.035156 -152.613281 55.6875 -155.519531 59.125 -157.8125 C 62.5625 -160.101562 66.503906 -161.25 70.953125 -161.25 Z M 70.953125 -161.25 "/></g></g></g><g fill="#000000" fill-opacity="1"><g transform="translate(2449.036271, 468.374996)"><g><path d="M 133.078125 -29.671875 C 132.796875 -29.097656 132.65625 -28.238281 132.65625 -27.09375 C 132.65625 -26.082031 132.90625 -25.289062 133.40625 -24.71875 C 133.90625 -24.144531 134.585938 -23.859375 135.453125 -23.859375 C 137.171875 -23.859375 138.640625 -24.609375 139.859375 -26.109375 C 141.078125 -27.617188 141.898438 -28.375 142.328125 -28.375 C 143.046875 -28.375 143.617188 -27.90625 144.046875 -26.96875 C 144.472656 -26.039062 144.6875 -24.9375 144.6875 -23.65625 C 144.832031 -19.5 143.472656 -15.445312 140.609375 -11.5 C 137.742188 -7.5625 133.550781 -4.335938 128.03125 -1.828125 C 122.507812 0.679688 115.878906 1.9375 108.140625 1.9375 C 98.679688 1.9375 91.15625 -0.25 85.5625 -4.625 C 79.976562 -9 77.113281 -14.835938 76.96875 -22.140625 C 76.96875 -27.441406 78.257812 -33.390625 80.84375 -39.984375 L 92.671875 -70.953125 C 93.378906 -72.816406 93.734375 -74.320312 93.734375 -75.46875 C 93.734375 -77.332031 93.125 -78.800781 91.90625 -79.875 C 90.6875 -80.945312 89.21875 -81.484375 87.5 -81.484375 C 84.351562 -81.484375 81.34375 -80.015625 78.46875 -77.078125 C 75.601562 -74.140625 73.523438 -70.519531 72.234375 -66.21875 L 58.90625 -22.359375 C 58.332031 -20.785156 58.046875 -19.28125 58.046875 -17.84375 C 58.046875 -16.125 58.40625 -14.726562 59.125 -13.65625 C 59.84375 -12.582031 60.847656 -11.46875 62.140625 -10.3125 C 63.140625 -9.457031 63.851562 -8.671875 64.28125 -7.953125 C 64.71875 -7.234375 64.789062 -6.375 64.5 -5.375 C 63.925781 -3.507812 62.5625 -2.144531 60.40625 -1.28125 C 58.257812 -0.425781 54.894531 0 50.3125 0 L 1.296875 0 C -2.429688 0 -5.117188 -0.609375 -6.765625 -1.828125 C -8.421875 -3.046875 -9.03125 -4.660156 -8.59375 -6.671875 C -8.019531 -8.390625 -6.515625 -9.894531 -4.078125 -11.1875 C -1.929688 -12.332031 -0.144531 -13.691406 1.28125 -15.265625 C 2.71875 -16.835938 3.9375 -19.347656 4.9375 -22.796875 L 24.078125 -84.921875 C 24.367188 -85.640625 24.515625 -86.644531 24.515625 -87.9375 C 24.515625 -89.507812 24.191406 -90.722656 23.546875 -91.578125 C 22.898438 -92.441406 21.859375 -93.519531 20.421875 -94.8125 C 18.992188 -95.957031 17.992188 -96.957031 17.421875 -97.8125 C 16.847656 -98.675781 16.773438 -99.828125 17.203125 -101.265625 C 18.054688 -104.554688 22.566406 -107.457031 30.734375 -109.96875 C 38.910156 -112.476562 47.441406 -113.734375 56.328125 -113.734375 C 63.492188 -113.734375 69.15625 -111.757812 73.3125 -107.8125 C 77.46875 -103.875 79.332031 -98.394531 78.90625 -91.375 C 84.78125 -99.832031 91.015625 -105.671875 97.609375 -108.890625 C 104.203125 -112.117188 111.367188 -113.734375 119.109375 -113.734375 C 127.847656 -113.734375 134.90625 -111.082031 140.28125 -105.78125 C 145.65625 -100.476562 148.34375 -93.597656 148.34375 -85.140625 C 148.34375 -80.691406 147.628906 -76.320312 146.203125 -72.03125 Z M 133.078125 -29.671875 "/></g></g></g><g fill="#000000" fill-opacity="1"><g transform="translate(2602.972481, 468.374996)"><g><path d="M 130.296875 -148.78125 C 134.878906 -148.78125 139.351562 -147.8125 143.71875 -145.875 C 148.09375 -143.9375 151.675781 -141.285156 154.46875 -137.921875 C 157.269531 -134.554688 158.671875 -130.9375 158.671875 -127.0625 C 158.671875 -118.601562 152.9375 -114.375 141.46875 -114.375 C 138.175781 -114.375 135.632812 -114.625 133.84375 -115.125 C 132.050781 -115.632812 129.9375 -116.460938 127.5 -117.609375 C 127.0625 -116.597656 126.84375 -115.164062 126.84375 -113.3125 C 126.84375 -111.007812 127.238281 -108.28125 128.03125 -105.125 C 128.820312 -101.976562 129.789062 -99.039062 130.9375 -96.3125 C 133.945312 -91.875 135.453125 -86.570312 135.453125 -80.40625 C 135.453125 -77.6875 135.09375 -74.390625 134.375 -70.515625 C 132.65625 -63.066406 128.890625 -56.257812 123.078125 -50.09375 C 117.273438 -43.925781 109.820312 -39.085938 100.71875 -35.578125 C 91.625 -32.066406 81.628906 -30.3125 70.734375 -30.3125 C 62.421875 -30.3125 54.609375 -30.882812 47.296875 -32.03125 C 45.148438 -30.164062 44.078125 -27.875 44.078125 -25.15625 C 44.078125 -23.289062 44.9375 -21.75 46.65625 -20.53125 C 48.375 -19.3125 51.238281 -18.703125 55.25 -18.703125 L 87.5 -18.703125 C 98.539062 -18.703125 107.140625 -16.800781 113.296875 -13 C 119.460938 -9.207031 122.546875 -3.800781 122.546875 3.21875 C 122.546875 5.800781 122.117188 8.457031 121.265625 11.1875 C 119.546875 16.769531 115.640625 21.960938 109.546875 26.765625 C 103.453125 31.566406 94.882812 35.472656 83.84375 38.484375 C 72.8125 41.492188 59.410156 43 43.640625 43 C 29.597656 43 17.703125 41.78125 7.953125 39.34375 C -1.796875 36.90625 -9.066406 33.570312 -13.859375 29.34375 C -18.660156 25.113281 -21.0625 20.421875 -21.0625 15.265625 C -21.0625 14.117188 -20.773438 12.398438 -20.203125 10.109375 C -18.921875 5.953125 -16.019531 2.550781 -11.5 -0.09375 C -6.988281 -2.75 0.425781 -4.507812 10.75 -5.375 C 7.3125 -8.664062 5.59375 -12.609375 5.59375 -17.203125 C 5.59375 -18.773438 5.804688 -20.421875 6.234375 -22.140625 C 8.523438 -29.597656 15.257812 -35.117188 26.4375 -38.703125 C 15.6875 -44.578125 10.3125 -53.175781 10.3125 -64.5 C 10.3125 -67.65625 10.742188 -70.953125 11.609375 -74.390625 C 13.328125 -81.835938 17.125 -88.609375 23 -94.703125 C 28.875 -100.796875 36.398438 -105.632812 45.578125 -109.21875 C 54.753906 -112.800781 64.789062 -114.59375 75.6875 -114.59375 C 92.738281 -114.59375 106.140625 -112.375 115.890625 -107.9375 C 113.734375 -111.226562 112.046875 -114.769531 110.828125 -118.5625 C 109.609375 -122.363281 109 -125.84375 109 -129 C 109 -134.445312 110.753906 -139.101562 114.265625 -142.96875 C 117.785156 -146.84375 123.128906 -148.78125 130.296875 -148.78125 Z M 83.640625 -72.453125 C 85.929688 -79.765625 87.078125 -85.351562 87.078125 -89.21875 C 87.078125 -94.09375 85 -96.53125 80.84375 -96.53125 C 77.257812 -96.53125 74.140625 -94.773438 71.484375 -91.265625 C 68.835938 -87.753906 66.148438 -81.484375 63.421875 -72.453125 C 61.128906 -65.003906 59.984375 -59.34375 59.984375 -55.46875 C 59.984375 -50.738281 61.988281 -48.375 66 -48.375 C 69.582031 -48.375 72.734375 -50.164062 75.453125 -53.75 C 78.179688 -57.332031 80.910156 -63.566406 83.640625 -72.453125 Z M 40.84375 3.015625 C 36.832031 3.015625 33.179688 2.796875 29.890625 2.359375 C 28.171875 4.515625 27.3125 7.382812 27.3125 10.96875 C 27.445312 14.550781 28.910156 17.128906 31.703125 18.703125 C 34.503906 20.273438 38.84375 21.0625 44.71875 21.0625 C 51.882812 21.0625 57.722656 19.988281 62.234375 17.84375 C 66.753906 15.695312 69.015625 12.613281 69.015625 8.59375 C 69.015625 6.875 68.367188 5.515625 67.078125 4.515625 C 65.785156 3.515625 63.921875 3.015625 61.484375 3.015625 Z M 40.84375 3.015625 "/></g></g></g><g clip-path="url(#49947ca943)"><g clip-path="url(#c2d0053d5a)"><g transform="matrix(1, 0, 0, 1, 150, 48)"><g clip-path="url(#4ee05355b2)"><g clip-path="url(#ca99cb95da)"><g clip-path="url(#a624bf49af)"><path fill="#ffffff" d="M 0 0.75 L 712.5 0.75 L 712.5 713.25 L 0 713.25 Z M 0 0.75 " fill-opacity="1" fill-rule="nonzero"/></g></g></g></g></g></g><g clip-path="url(#9ff7859dbd)"><g clip-path="url(#8af83b9668)"><g transform="matrix(1, 0, 0, 1, 525, 124)"><g clip-path="url(#02fa3ed00f)"><g clip-path="url(#aad3794b77)"><g clip-path="url(#741cc6859c)"><path fill="#95c69d" d="M 0.921875 0.328125 L 263.421875 0.328125 L 263.421875 262.828125 L 0.921875 262.828125 Z M 0.921875 0.328125 " fill-opacity="1" fill-rule="nonzero"/></g></g></g></g></g></g><g clip-path="url(#302db55baf)"><g clip-path="url(#0bca2d84f7)"><g transform="matrix(1, 0, 0, 1, 224, 124)"><g clip-path="url(#7d74262995)"><g clip-path="url(#78ac45ab89)"><g clip-path="url(#8fb6f7e750)"><path fill="#eda95d" d="M 0.078125 0.328125 L 262.578125 0.328125 L 262.578125 262.828125 L 0.078125 262.828125 Z M 0.078125 0.328125 " fill-opacity="1" fill-rule="nonzero"/></g></g></g></g></g></g><g clip-path="url(#25041a4139)"><g clip-path="url(#8d0670da6f)"><g transform="matrix(1, 0, 0, 1, 224, 423)"><g clip-path="url(#e6dae918af)"><g clip-path="url(#96a90a07d7)"><g clip-path="url(#4ef1f75993)"><path fill="#8dafdb" d="M 0.078125 0.171875 L 262.578125 0.171875 L 262.578125 262.671875 L 0.078125 262.671875 Z M 0.078125 0.171875 " fill-opacity="1" fill-rule="nonzero"/></g></g></g></g></g></g><g clip-path="url(#dae95bfcfb)"><g clip-path="url(#be7f499683)"><g transform="matrix(1, 0, 0, 1, 525, 423)"><g clip-path="url(#e8da1c78ae)"><g clip-path="url(#42062b9370)"><g clip-path="url(#c09ff31906)"><path fill="#cdbfd2" d="M 0.921875 0.171875 L 263.421875 0.171875 L 263.421875 262.671875 L 0.921875 262.671875 Z M 0.921875 0.171875 " fill-opacity="1" fill-rule="nonzero"/></g></g></g></g></g></g></svg>