<svg xmlns="http://www.w3.org/2000/svg" xmlns:xlink="http://www.w3.org/1999/xlink" width="128" zoomAndPan="magnify" viewBox="0 0 96 95.999999" height="128" preserveAspectRatio="xMidYMid meet" version="1.2"><defs><clipPath id="b293a50a06"><path d="M 12 12 L 84 12 L 84 84 L 12 84 Z M 12 12 "/></clipPath><clipPath id="565f8c114a"><path d="M 17.25 12 L 78.75 12 C 81.648438 12 84 14.351562 84 17.25 L 84 78.75 C 84 81.648438 81.648438 84 78.75 84 L 17.25 84 C 14.351562 84 12 81.648438 12 78.75 L 12 17.25 C 12 14.351562 14.351562 12 17.25 12 Z M 17.25 12 "/></clipPath><clipPath id="1a939a8123"><path d="M 49.574219 19.574219 L 76.574219 19.574219 L 76.574219 46.574219 L 49.574219 46.574219 Z M 49.574219 19.574219 "/></clipPath><clipPath id="93477ad017"><path d="M 54.824219 19.574219 L 71.324219 19.574219 C 72.71875 19.574219 74.054688 20.128906 75.039062 21.113281 C 76.023438 22.097656 76.574219 23.433594 76.574219 24.824219 L 76.574219 41.324219 C 76.574219 42.71875 76.023438 44.054688 75.039062 45.039062 C 74.054688 46.023438 72.71875 46.574219 71.324219 46.574219 L 54.824219 46.574219 C 53.433594 46.574219 52.097656 46.023438 51.113281 45.039062 C 50.128906 44.054688 49.574219 42.71875 49.574219 41.324219 L 49.574219 24.824219 C 49.574219 23.433594 50.128906 22.097656 51.113281 21.113281 C 52.097656 20.128906 53.433594 19.574219 54.824219 19.574219 Z M 54.824219 19.574219 "/></clipPath><clipPath id="ad213668b4"><path d="M 19.425781 19.574219 L 46.425781 19.574219 L 46.425781 46.574219 L 19.425781 46.574219 Z M 19.425781 19.574219 "/></clipPath><clipPath id="5837486a7f"><path d="M 24.675781 19.574219 L 41.175781 19.574219 C 42.566406 19.574219 43.902344 20.128906 44.886719 21.113281 C 45.871094 22.097656 46.425781 23.433594 46.425781 24.824219 L 46.425781 41.324219 C 46.425781 42.71875 45.871094 44.054688 44.886719 45.039062 C 43.902344 46.023438 42.566406 46.574219 41.175781 46.574219 L 24.675781 46.574219 C 23.28125 46.574219 21.945312 46.023438 20.960938 45.039062 C 19.976562 44.054688 19.425781 42.71875 19.425781 41.324219 L 19.425781 24.824219 C 19.425781 23.433594 19.976562 22.097656 20.960938 21.113281 C 21.945312 20.128906 23.28125 19.574219 24.675781 19.574219 Z M 24.675781 19.574219 "/></clipPath><clipPath id="2eb2a11a20"><path d="M 19.425781 49.425781 L 46.425781 49.425781 L 46.425781 76.425781 L 19.425781 76.425781 Z M 19.425781 49.425781 "/></clipPath><clipPath id="caf1c49d91"><path d="M 24.675781 49.425781 L 41.175781 49.425781 C 42.566406 49.425781 43.902344 49.976562 44.886719 50.960938 C 45.871094 51.945312 46.425781 53.28125 46.425781 54.675781 L 46.425781 71.175781 C 46.425781 72.566406 45.871094 73.902344 44.886719 74.886719 C 43.902344 75.871094 42.566406 76.425781 41.175781 76.425781 L 24.675781 76.425781 C 23.28125 76.425781 21.945312 75.871094 20.960938 74.886719 C 19.976562 73.902344 19.425781 72.566406 19.425781 71.175781 L 19.425781 54.675781 C 19.425781 53.28125 19.976562 51.945312 20.960938 50.960938 C 21.945312 49.976562 23.28125 49.425781 24.675781 49.425781 Z M 24.675781 49.425781 "/></clipPath><clipPath id="b6d33f4f85"><path d="M 49.574219 49.425781 L 76.574219 49.425781 L 76.574219 76.425781 L 49.574219 76.425781 Z M 49.574219 49.425781 "/></clipPath><clipPath id="11dfbe817c"><path d="M 54.824219 49.425781 L 71.324219 49.425781 C 72.71875 49.425781 74.054688 49.976562 75.039062 50.960938 C 76.023438 51.945312 76.574219 53.28125 76.574219 54.675781 L 76.574219 71.175781 C 76.574219 72.566406 76.023438 73.902344 75.039062 74.886719 C 74.054688 75.871094 72.71875 76.425781 71.324219 76.425781 L 54.824219 76.425781 C 53.433594 76.425781 52.097656 75.871094 51.113281 74.886719 C 50.128906 73.902344 49.574219 72.566406 49.574219 71.175781 L 49.574219 54.675781 C 49.574219 53.28125 50.128906 51.945312 51.113281 50.960938 C 52.097656 49.976562 53.433594 49.425781 54.824219 49.425781 Z M 54.824219 49.425781 "/></clipPath></defs><g id="588da40f0e"><g clip-rule="nonzero" clip-path="url(#b293a50a06)"><g clip-rule="nonzero" clip-path="url(#565f8c114a)"><path style=" stroke:none;fill-rule:nonzero;fill:#ffffff;fill-opacity:1;" d="M 12 12 L 84 12 L 84 84 L 12 84 Z M 12 12 "/></g></g><g clip-rule="nonzero" clip-path="url(#1a939a8123)"><g clip-rule="nonzero" clip-path="url(#93477ad017)"><path style=" stroke:none;fill-rule:nonzero;fill:#95c69d;fill-opacity:1;" d="M 49.574219 19.574219 L 76.574219 19.574219 L 76.574219 46.574219 L 49.574219 46.574219 Z M 49.574219 19.574219 "/></g></g><g clip-rule="nonzero" clip-path="url(#ad213668b4)"><g clip-rule="nonzero" clip-path="url(#5837486a7f)"><path style=" stroke:none;fill-rule:nonzero;fill:#eda95d;fill-opacity:1;" d="M 19.425781 19.574219 L 46.425781 19.574219 L 46.425781 46.574219 L 19.425781 46.574219 Z M 19.425781 19.574219 "/></g></g><g clip-rule="nonzero" clip-path="url(#2eb2a11a20)"><g clip-rule="nonzero" clip-path="url(#caf1c49d91)"><path style=" stroke:none;fill-rule:nonzero;fill:#8dafdb;fill-opacity:1;" d="M 19.425781 49.425781 L 46.425781 49.425781 L 46.425781 76.425781 L 19.425781 76.425781 Z M 19.425781 49.425781 "/></g></g><g clip-rule="nonzero" clip-path="url(#b6d33f4f85)"><g clip-rule="nonzero" clip-path="url(#11dfbe817c)"><path style=" stroke:none;fill-rule:nonzero;fill:#cdbfd2;fill-opacity:1;" d="M 49.574219 49.425781 L 76.574219 49.425781 L 76.574219 76.425781 L 49.574219 76.425781 Z M 49.574219 49.425781 "/></g></g></g></svg>