<svg xmlns="http://www.w3.org/2000/svg" xmlns:xlink="http://www.w3.org/1999/xlink" width="128" zoomAndPan="magnify" viewBox="0 0 96 95.999999" height="128" preserveAspectRatio="xMidYMid meet" version="1.0"><defs><clipPath id="7aa22f5f8b"><path d="M 12 12 L 84 12 L 84 84 L 12 84 Z M 12 12 " clip-rule="nonzero"/></clipPath><clipPath id="c1eea24eab"><path d="M 17.25 12 L 78.75 12 C 81.648438 12 84 14.351562 84 17.25 L 84 78.75 C 84 81.648438 81.648438 84 78.75 84 L 17.25 84 C 14.351562 84 12 81.648438 12 78.75 L 12 17.25 C 12 14.351562 14.351562 12 17.25 12 Z M 17.25 12 " clip-rule="nonzero"/></clipPath><clipPath id="49bc54de46"><path d="M 0 0 L 72 0 L 72 72 L 0 72 Z M 0 0 " clip-rule="nonzero"/></clipPath><clipPath id="af9867f7c1"><path d="M 5.25 0 L 66.75 0 C 69.648438 0 72 2.351562 72 5.25 L 72 66.75 C 72 69.648438 69.648438 72 66.75 72 L 5.25 72 C 2.351562 72 0 69.648438 0 66.75 L 0 5.25 C 0 2.351562 2.351562 0 5.25 0 Z M 5.25 0 " clip-rule="nonzero"/></clipPath><clipPath id="85a784c84c"><rect x="0" width="72" y="0" height="72"/></clipPath><clipPath id="551b36b314"><path d="M 49.574219 19.574219 L 76.574219 19.574219 L 76.574219 46.574219 L 49.574219 46.574219 Z M 49.574219 19.574219 " clip-rule="nonzero"/></clipPath><clipPath id="061c80cd8e"><path d="M 54.824219 19.574219 L 71.324219 19.574219 C 72.71875 19.574219 74.054688 20.128906 75.039062 21.113281 C 76.023438 22.097656 76.574219 23.433594 76.574219 24.824219 L 76.574219 41.324219 C 76.574219 42.71875 76.023438 44.050781 75.039062 45.039062 C 74.054688 46.023438 72.71875 46.574219 71.324219 46.574219 L 54.824219 46.574219 C 53.433594 46.574219 52.097656 46.023438 51.113281 45.039062 C 50.128906 44.050781 49.574219 42.71875 49.574219 41.324219 L 49.574219 24.824219 C 49.574219 23.433594 50.128906 22.097656 51.113281 21.113281 C 52.097656 20.128906 53.433594 19.574219 54.824219 19.574219 Z M 54.824219 19.574219 " clip-rule="nonzero"/></clipPath><clipPath id="406ff861e6"><path d="M 0.574219 0.574219 L 27.574219 0.574219 L 27.574219 27.574219 L 0.574219 27.574219 Z M 0.574219 0.574219 " clip-rule="nonzero"/></clipPath><clipPath id="b62ab2bbf8"><path d="M 5.824219 0.574219 L 22.324219 0.574219 C 23.71875 0.574219 25.054688 1.128906 26.039062 2.113281 C 27.023438 3.097656 27.574219 4.433594 27.574219 5.824219 L 27.574219 22.324219 C 27.574219 23.71875 27.023438 25.050781 26.039062 26.039062 C 25.054688 27.023438 23.71875 27.574219 22.324219 27.574219 L 5.824219 27.574219 C 4.433594 27.574219 3.097656 27.023438 2.113281 26.039062 C 1.128906 25.050781 0.574219 23.71875 0.574219 22.324219 L 0.574219 5.824219 C 0.574219 4.433594 1.128906 3.097656 2.113281 2.113281 C 3.097656 1.128906 4.433594 0.574219 5.824219 0.574219 Z M 5.824219 0.574219 " clip-rule="nonzero"/></clipPath><clipPath id="ffb2e72c34"><rect x="0" width="28" y="0" height="28"/></clipPath><clipPath id="04465979c6"><path d="M 19.425781 19.574219 L 46.425781 19.574219 L 46.425781 46.574219 L 19.425781 46.574219 Z M 19.425781 19.574219 " clip-rule="nonzero"/></clipPath><clipPath id="8fc205dce6"><path d="M 24.675781 19.574219 L 41.175781 19.574219 C 42.566406 19.574219 43.902344 20.128906 44.886719 21.113281 C 45.871094 22.097656 46.425781 23.433594 46.425781 24.824219 L 46.425781 41.324219 C 46.425781 42.71875 45.871094 44.050781 44.886719 45.039062 C 43.902344 46.023438 42.566406 46.574219 41.175781 46.574219 L 24.675781 46.574219 C 23.28125 46.574219 21.945312 46.023438 20.960938 45.039062 C 19.976562 44.050781 19.425781 42.71875 19.425781 41.324219 L 19.425781 24.824219 C 19.425781 23.433594 19.976562 22.097656 20.960938 21.113281 C 21.945312 20.128906 23.28125 19.574219 24.675781 19.574219 Z M 24.675781 19.574219 " clip-rule="nonzero"/></clipPath><clipPath id="4072ea582c"><path d="M 0.425781 0.574219 L 27.425781 0.574219 L 27.425781 27.574219 L 0.425781 27.574219 Z M 0.425781 0.574219 " clip-rule="nonzero"/></clipPath><clipPath id="116d12bc3f"><path d="M 5.675781 0.574219 L 22.175781 0.574219 C 23.566406 0.574219 24.902344 1.128906 25.886719 2.113281 C 26.871094 3.097656 27.425781 4.433594 27.425781 5.824219 L 27.425781 22.324219 C 27.425781 23.71875 26.871094 25.050781 25.886719 26.039062 C 24.902344 27.023438 23.566406 27.574219 22.175781 27.574219 L 5.675781 27.574219 C 4.28125 27.574219 2.945312 27.023438 1.960938 26.039062 C 0.976562 25.050781 0.425781 23.71875 0.425781 22.324219 L 0.425781 5.824219 C 0.425781 4.433594 0.976562 3.097656 1.960938 2.113281 C 2.945312 1.128906 4.28125 0.574219 5.675781 0.574219 Z M 5.675781 0.574219 " clip-rule="nonzero"/></clipPath><clipPath id="14eee51468"><rect x="0" width="28" y="0" height="28"/></clipPath><clipPath id="5b43ceda20"><path d="M 19.425781 49.425781 L 46.425781 49.425781 L 46.425781 76.425781 L 19.425781 76.425781 Z M 19.425781 49.425781 " clip-rule="nonzero"/></clipPath><clipPath id="fc188a0cd9"><path d="M 24.675781 49.425781 L 41.175781 49.425781 C 42.566406 49.425781 43.902344 49.976562 44.886719 50.960938 C 45.871094 51.949219 46.425781 53.28125 46.425781 54.675781 L 46.425781 71.175781 C 46.425781 72.566406 45.871094 73.902344 44.886719 74.886719 C 43.902344 75.871094 42.566406 76.425781 41.175781 76.425781 L 24.675781 76.425781 C 23.28125 76.425781 21.945312 75.871094 20.960938 74.886719 C 19.976562 73.902344 19.425781 72.566406 19.425781 71.175781 L 19.425781 54.675781 C 19.425781 53.28125 19.976562 51.949219 20.960938 50.960938 C 21.945312 49.976562 23.28125 49.425781 24.675781 49.425781 Z M 24.675781 49.425781 " clip-rule="nonzero"/></clipPath><clipPath id="cc7a535dfb"><path d="M 0.425781 0.425781 L 27.425781 0.425781 L 27.425781 27.425781 L 0.425781 27.425781 Z M 0.425781 0.425781 " clip-rule="nonzero"/></clipPath><clipPath id="ead99746ba"><path d="M 5.675781 0.425781 L 22.175781 0.425781 C 23.566406 0.425781 24.902344 0.976562 25.886719 1.960938 C 26.871094 2.949219 27.425781 4.28125 27.425781 5.675781 L 27.425781 22.175781 C 27.425781 23.566406 26.871094 24.902344 25.886719 25.886719 C 24.902344 26.871094 23.566406 27.425781 22.175781 27.425781 L 5.675781 27.425781 C 4.28125 27.425781 2.945312 26.871094 1.960938 25.886719 C 0.976562 24.902344 0.425781 23.566406 0.425781 22.175781 L 0.425781 5.675781 C 0.425781 4.28125 0.976562 2.949219 1.960938 1.960938 C 2.945312 0.976562 4.28125 0.425781 5.675781 0.425781 Z M 5.675781 0.425781 " clip-rule="nonzero"/></clipPath><clipPath id="de178e3964"><rect x="0" width="28" y="0" height="28"/></clipPath><clipPath id="af7efa8aa8"><path d="M 49.574219 49.425781 L 76.574219 49.425781 L 76.574219 76.425781 L 49.574219 76.425781 Z M 49.574219 49.425781 " clip-rule="nonzero"/></clipPath><clipPath id="1c282b2913"><path d="M 54.824219 49.425781 L 71.324219 49.425781 C 72.71875 49.425781 74.054688 49.976562 75.039062 50.960938 C 76.023438 51.949219 76.574219 53.28125 76.574219 54.675781 L 76.574219 71.175781 C 76.574219 72.566406 76.023438 73.902344 75.039062 74.886719 C 74.054688 75.871094 72.71875 76.425781 71.324219 76.425781 L 54.824219 76.425781 C 53.433594 76.425781 52.097656 75.871094 51.113281 74.886719 C 50.128906 73.902344 49.574219 72.566406 49.574219 71.175781 L 49.574219 54.675781 C 49.574219 53.28125 50.128906 51.949219 51.113281 50.960938 C 52.097656 49.976562 53.433594 49.425781 54.824219 49.425781 Z M 54.824219 49.425781 " clip-rule="nonzero"/></clipPath><clipPath id="40d401965f"><path d="M 0.574219 0.425781 L 27.574219 0.425781 L 27.574219 27.425781 L 0.574219 27.425781 Z M 0.574219 0.425781 " clip-rule="nonzero"/></clipPath><clipPath id="10e3d6ea06"><path d="M 5.824219 0.425781 L 22.324219 0.425781 C 23.71875 0.425781 25.054688 0.976562 26.039062 1.960938 C 27.023438 2.949219 27.574219 4.28125 27.574219 5.675781 L 27.574219 22.175781 C 27.574219 23.566406 27.023438 24.902344 26.039062 25.886719 C 25.054688 26.871094 23.71875 27.425781 22.324219 27.425781 L 5.824219 27.425781 C 4.433594 27.425781 3.097656 26.871094 2.113281 25.886719 C 1.128906 24.902344 0.574219 23.566406 0.574219 22.175781 L 0.574219 5.675781 C 0.574219 4.28125 1.128906 2.949219 2.113281 1.960938 C 3.097656 0.976562 4.433594 0.425781 5.824219 0.425781 Z M 5.824219 0.425781 " clip-rule="nonzero"/></clipPath><clipPath id="54f25ba026"><rect x="0" width="28" y="0" height="28"/></clipPath></defs><rect x="-9.6" width="115.2" fill="#ffffff" y="-9.6" height="115.199999" fill-opacity="1"/><rect x="-9.6" width="115.2" fill="#000000" y="-9.6" height="115.199999" fill-opacity="1"/><g clip-path="url(#7aa22f5f8b)"><g clip-path="url(#c1eea24eab)"><g transform="matrix(1, 0, 0, 1, 12, 12)"><g clip-path="url(#85a784c84c)"><g clip-path="url(#49bc54de46)"><g clip-path="url(#af9867f7c1)"><rect x="-33.12" width="138.24" fill="#000000" height="138.239999" y="-33.12" fill-opacity="1"/></g></g></g></g><path stroke-linecap="butt" transform="matrix(0.75, 0, 0, 0.75, 12, 12.000001)" fill="none" stroke-linejoin="miter" d="M 7.000001 -0.00000183333 L 89.000005 -0.00000183333 C 92.864588 -0.00000183333 96.000005 3.135415 96.000005 6.999999 L 96.000005 89.000003 C 96.000005 92.864586 92.864588 96.000003 89.000005 96.000003 L 7.000001 96.000003 C 3.135417 96.000003 0.000000166667 92.864586 0.000000166667 89.000003 L 0.000000166667 6.999999 C 0.000000166667 3.135415 3.135417 -0.00000183333 7.000001 -0.00000183333 Z M 7.000001 -0.00000183333 " stroke="#ffffff" stroke-width="4" stroke-opacity="1" stroke-miterlimit="4"/></g></g><g clip-path="url(#551b36b314)"><g clip-path="url(#061c80cd8e)"><g transform="matrix(1, 0, 0, 1, 49, 19)"><g clip-path="url(#ffb2e72c34)"><g clip-path="url(#406ff861e6)"><g clip-path="url(#b62ab2bbf8)"><path fill="#ffffff" d="M 0.574219 0.574219 L 27.574219 0.574219 L 27.574219 27.574219 L 0.574219 27.574219 Z M 0.574219 0.574219 " fill-opacity="1" fill-rule="nonzero"/></g></g></g></g></g></g><g clip-path="url(#04465979c6)"><g clip-path="url(#8fc205dce6)"><g transform="matrix(1, 0, 0, 1, 19, 19)"><g clip-path="url(#14eee51468)"><g clip-path="url(#4072ea582c)"><g clip-path="url(#116d12bc3f)"><path fill="#ffffff" d="M 0.425781 0.574219 L 27.425781 0.574219 L 27.425781 27.574219 L 0.425781 27.574219 Z M 0.425781 0.574219 " fill-opacity="1" fill-rule="nonzero"/></g></g></g></g></g></g><g clip-path="url(#5b43ceda20)"><g clip-path="url(#fc188a0cd9)"><g transform="matrix(1, 0, 0, 1, 19, 49)"><g clip-path="url(#de178e3964)"><g clip-path="url(#cc7a535dfb)"><g clip-path="url(#ead99746ba)"><path fill="#ffffff" d="M 0.425781 0.425781 L 27.425781 0.425781 L 27.425781 27.425781 L 0.425781 27.425781 Z M 0.425781 0.425781 " fill-opacity="1" fill-rule="nonzero"/></g></g></g></g></g></g><g clip-path="url(#af7efa8aa8)"><g clip-path="url(#1c282b2913)"><g transform="matrix(1, 0, 0, 1, 49, 49)"><g clip-path="url(#54f25ba026)"><g clip-path="url(#40d401965f)"><g clip-path="url(#10e3d6ea06)"><path fill="#ffffff" d="M 0.574219 0.425781 L 27.574219 0.425781 L 27.574219 27.425781 L 0.574219 27.425781 Z M 0.574219 0.425781 " fill-opacity="1" fill-rule="nonzero"/></g></g></g></g></g></g></svg>