<svg xmlns="http://www.w3.org/2000/svg" xmlns:xlink="http://www.w3.org/1999/xlink" width="128" zoomAndPan="magnify" viewBox="0 0 96 95.999999" height="128" preserveAspectRatio="xMidYMid meet" version="1.0"><defs><clipPath id="1c5a59659a"><path d="M 49.574219 19.574219 L 76.574219 19.574219 L 76.574219 46.574219 L 49.574219 46.574219 Z M 49.574219 19.574219 " clip-rule="nonzero"/></clipPath><clipPath id="434b2e6644"><path d="M 54.824219 19.574219 L 71.324219 19.574219 C 72.71875 19.574219 74.054688 20.128906 75.039062 21.113281 C 76.023438 22.097656 76.574219 23.433594 76.574219 24.824219 L 76.574219 41.324219 C 76.574219 42.71875 76.023438 44.054688 75.039062 45.039062 C 74.054688 46.023438 72.71875 46.574219 71.324219 46.574219 L 54.824219 46.574219 C 53.433594 46.574219 52.097656 46.023438 51.113281 45.039062 C 50.128906 44.054688 49.574219 42.71875 49.574219 41.324219 L 49.574219 24.824219 C 49.574219 23.433594 50.128906 22.097656 51.113281 21.113281 C 52.097656 20.128906 53.433594 19.574219 54.824219 19.574219 Z M 54.824219 19.574219 " clip-rule="nonzero"/></clipPath><clipPath id="5e9631227f"><path d="M 0.574219 0.574219 L 27.574219 0.574219 L 27.574219 27.574219 L 0.574219 27.574219 Z M 0.574219 0.574219 " clip-rule="nonzero"/></clipPath><clipPath id="824a337e72"><path d="M 5.824219 0.574219 L 22.324219 0.574219 C 23.71875 0.574219 25.054688 1.128906 26.039062 2.113281 C 27.023438 3.097656 27.574219 4.433594 27.574219 5.824219 L 27.574219 22.324219 C 27.574219 23.71875 27.023438 25.054688 26.039062 26.039062 C 25.054688 27.023438 23.71875 27.574219 22.324219 27.574219 L 5.824219 27.574219 C 4.433594 27.574219 3.097656 27.023438 2.113281 26.039062 C 1.128906 25.054688 0.574219 23.71875 0.574219 22.324219 L 0.574219 5.824219 C 0.574219 4.433594 1.128906 3.097656 2.113281 2.113281 C 3.097656 1.128906 4.433594 0.574219 5.824219 0.574219 Z M 5.824219 0.574219 " clip-rule="nonzero"/></clipPath><clipPath id="ede81e0f2c"><rect x="0" width="28" y="0" height="28"/></clipPath><clipPath id="426d845c07"><path d="M 19.425781 19.574219 L 46.425781 19.574219 L 46.425781 46.574219 L 19.425781 46.574219 Z M 19.425781 19.574219 " clip-rule="nonzero"/></clipPath><clipPath id="bc63324e2a"><path d="M 24.675781 19.574219 L 41.175781 19.574219 C 42.566406 19.574219 43.902344 20.128906 44.886719 21.113281 C 45.871094 22.097656 46.425781 23.433594 46.425781 24.824219 L 46.425781 41.324219 C 46.425781 42.71875 45.871094 44.054688 44.886719 45.039062 C 43.902344 46.023438 42.566406 46.574219 41.175781 46.574219 L 24.675781 46.574219 C 23.28125 46.574219 21.945312 46.023438 20.960938 45.039062 C 19.976562 44.054688 19.425781 42.71875 19.425781 41.324219 L 19.425781 24.824219 C 19.425781 23.433594 19.976562 22.097656 20.960938 21.113281 C 21.945312 20.128906 23.28125 19.574219 24.675781 19.574219 Z M 24.675781 19.574219 " clip-rule="nonzero"/></clipPath><clipPath id="1d97617140"><path d="M 0.425781 0.574219 L 27.425781 0.574219 L 27.425781 27.574219 L 0.425781 27.574219 Z M 0.425781 0.574219 " clip-rule="nonzero"/></clipPath><clipPath id="03898c45c6"><path d="M 5.675781 0.574219 L 22.175781 0.574219 C 23.566406 0.574219 24.902344 1.128906 25.886719 2.113281 C 26.871094 3.097656 27.425781 4.433594 27.425781 5.824219 L 27.425781 22.324219 C 27.425781 23.71875 26.871094 25.054688 25.886719 26.039062 C 24.902344 27.023438 23.566406 27.574219 22.175781 27.574219 L 5.675781 27.574219 C 4.28125 27.574219 2.945312 27.023438 1.960938 26.039062 C 0.976562 25.054688 0.425781 23.71875 0.425781 22.324219 L 0.425781 5.824219 C 0.425781 4.433594 0.976562 3.097656 1.960938 2.113281 C 2.945312 1.128906 4.28125 0.574219 5.675781 0.574219 Z M 5.675781 0.574219 " clip-rule="nonzero"/></clipPath><clipPath id="bf348ee409"><rect x="0" width="28" y="0" height="28"/></clipPath><clipPath id="ee8b070c9a"><path d="M 19.425781 49.425781 L 46.425781 49.425781 L 46.425781 76.425781 L 19.425781 76.425781 Z M 19.425781 49.425781 " clip-rule="nonzero"/></clipPath><clipPath id="686ac166e3"><path d="M 24.675781 49.425781 L 41.175781 49.425781 C 42.566406 49.425781 43.902344 49.976562 44.886719 50.960938 C 45.871094 51.945312 46.425781 53.28125 46.425781 54.675781 L 46.425781 71.175781 C 46.425781 72.566406 45.871094 73.902344 44.886719 74.886719 C 43.902344 75.871094 42.566406 76.425781 41.175781 76.425781 L 24.675781 76.425781 C 23.28125 76.425781 21.945312 75.871094 20.960938 74.886719 C 19.976562 73.902344 19.425781 72.566406 19.425781 71.175781 L 19.425781 54.675781 C 19.425781 53.28125 19.976562 51.945312 20.960938 50.960938 C 21.945312 49.976562 23.28125 49.425781 24.675781 49.425781 Z M 24.675781 49.425781 " clip-rule="nonzero"/></clipPath><clipPath id="f6571b2c9e"><path d="M 0.425781 0.425781 L 27.425781 0.425781 L 27.425781 27.425781 L 0.425781 27.425781 Z M 0.425781 0.425781 " clip-rule="nonzero"/></clipPath><clipPath id="8ddea6aa63"><path d="M 5.675781 0.425781 L 22.175781 0.425781 C 23.566406 0.425781 24.902344 0.976562 25.886719 1.960938 C 26.871094 2.945312 27.425781 4.28125 27.425781 5.675781 L 27.425781 22.175781 C 27.425781 23.566406 26.871094 24.902344 25.886719 25.886719 C 24.902344 26.871094 23.566406 27.425781 22.175781 27.425781 L 5.675781 27.425781 C 4.28125 27.425781 2.945312 26.871094 1.960938 25.886719 C 0.976562 24.902344 0.425781 23.566406 0.425781 22.175781 L 0.425781 5.675781 C 0.425781 4.28125 0.976562 2.945312 1.960938 1.960938 C 2.945312 0.976562 4.28125 0.425781 5.675781 0.425781 Z M 5.675781 0.425781 " clip-rule="nonzero"/></clipPath><clipPath id="8caf9a4491"><rect x="0" width="28" y="0" height="28"/></clipPath><clipPath id="1d87f67f16"><path d="M 49.574219 49.425781 L 76.574219 49.425781 L 76.574219 76.425781 L 49.574219 76.425781 Z M 49.574219 49.425781 " clip-rule="nonzero"/></clipPath><clipPath id="6c07883dff"><path d="M 54.824219 49.425781 L 71.324219 49.425781 C 72.71875 49.425781 74.054688 49.976562 75.039062 50.960938 C 76.023438 51.945312 76.574219 53.28125 76.574219 54.675781 L 76.574219 71.175781 C 76.574219 72.566406 76.023438 73.902344 75.039062 74.886719 C 74.054688 75.871094 72.71875 76.425781 71.324219 76.425781 L 54.824219 76.425781 C 53.433594 76.425781 52.097656 75.871094 51.113281 74.886719 C 50.128906 73.902344 49.574219 72.566406 49.574219 71.175781 L 49.574219 54.675781 C 49.574219 53.28125 50.128906 51.945312 51.113281 50.960938 C 52.097656 49.976562 53.433594 49.425781 54.824219 49.425781 Z M 54.824219 49.425781 " clip-rule="nonzero"/></clipPath><clipPath id="b57bc8cb2b"><path d="M 0.574219 0.425781 L 27.574219 0.425781 L 27.574219 27.425781 L 0.574219 27.425781 Z M 0.574219 0.425781 " clip-rule="nonzero"/></clipPath><clipPath id="db3eeff6ce"><path d="M 5.824219 0.425781 L 22.324219 0.425781 C 23.71875 0.425781 25.054688 0.976562 26.039062 1.960938 C 27.023438 2.945312 27.574219 4.28125 27.574219 5.675781 L 27.574219 22.175781 C 27.574219 23.566406 27.023438 24.902344 26.039062 25.886719 C 25.054688 26.871094 23.71875 27.425781 22.324219 27.425781 L 5.824219 27.425781 C 4.433594 27.425781 3.097656 26.871094 2.113281 25.886719 C 1.128906 24.902344 0.574219 23.566406 0.574219 22.175781 L 0.574219 5.675781 C 0.574219 4.28125 1.128906 2.945312 2.113281 1.960938 C 3.097656 0.976562 4.433594 0.425781 5.824219 0.425781 Z M 5.824219 0.425781 " clip-rule="nonzero"/></clipPath><clipPath id="221e433963"><rect x="0" width="28" y="0" height="28"/></clipPath></defs><rect x="-9.6" width="115.2" fill="#ffffff" y="-9.6" height="115.199999" fill-opacity="1"/><rect x="-9.6" width="115.2" fill="#000000" y="-9.6" height="115.199999" fill-opacity="1"/><g clip-path="url(#1c5a59659a)"><g clip-path="url(#434b2e6644)"><g transform="matrix(1, 0, 0, 1, 49, 19)"><g clip-path="url(#ede81e0f2c)"><g clip-path="url(#5e9631227f)"><g clip-path="url(#824a337e72)"><path fill="#ffffff" d="M 0.574219 0.574219 L 27.574219 0.574219 L 27.574219 27.574219 L 0.574219 27.574219 Z M 0.574219 0.574219 " fill-opacity="1" fill-rule="nonzero"/></g></g></g></g></g></g><g clip-path="url(#426d845c07)"><g clip-path="url(#bc63324e2a)"><g transform="matrix(1, 0, 0, 1, 19, 19)"><g clip-path="url(#bf348ee409)"><g clip-path="url(#1d97617140)"><g clip-path="url(#03898c45c6)"><path fill="#ffffff" d="M 0.425781 0.574219 L 27.425781 0.574219 L 27.425781 27.574219 L 0.425781 27.574219 Z M 0.425781 0.574219 " fill-opacity="1" fill-rule="nonzero"/></g></g></g></g></g></g><g clip-path="url(#ee8b070c9a)"><g clip-path="url(#686ac166e3)"><g transform="matrix(1, 0, 0, 1, 19, 49)"><g clip-path="url(#8caf9a4491)"><g clip-path="url(#f6571b2c9e)"><g clip-path="url(#8ddea6aa63)"><path fill="#ffffff" d="M 0.425781 0.425781 L 27.425781 0.425781 L 27.425781 27.425781 L 0.425781 27.425781 Z M 0.425781 0.425781 " fill-opacity="1" fill-rule="nonzero"/></g></g></g></g></g></g><g clip-path="url(#1d87f67f16)"><g clip-path="url(#6c07883dff)"><g transform="matrix(1, 0, 0, 1, 49, 49)"><g clip-path="url(#221e433963)"><g clip-path="url(#b57bc8cb2b)"><g clip-path="url(#db3eeff6ce)"><path fill="#ffffff" d="M 0.574219 0.425781 L 27.574219 0.425781 L 27.574219 27.425781 L 0.574219 27.425781 Z M 0.574219 0.425781 " fill-opacity="1" fill-rule="nonzero"/></g></g></g></g></g></g></svg>