<svg xmlns="http://www.w3.org/2000/svg" xmlns:xlink="http://www.w3.org/1999/xlink" width="128" zoomAndPan="magnify" viewBox="0 0 96 95.999999" height="128" preserveAspectRatio="xMidYMid meet" version="1.0"><defs><clipPath id="bbbb84a6cf"><path d="M 49.574219 19.574219 L 76.574219 19.574219 L 76.574219 46.574219 L 49.574219 46.574219 Z M 49.574219 19.574219 " clip-rule="nonzero"/></clipPath><clipPath id="7c408b00e9"><path d="M 54.824219 19.574219 L 71.324219 19.574219 C 72.71875 19.574219 74.054688 20.128906 75.039062 21.113281 C 76.023438 22.097656 76.574219 23.433594 76.574219 24.824219 L 76.574219 41.324219 C 76.574219 42.71875 76.023438 44.054688 75.039062 45.039062 C 74.054688 46.023438 72.71875 46.574219 71.324219 46.574219 L 54.824219 46.574219 C 53.433594 46.574219 52.097656 46.023438 51.113281 45.039062 C 50.128906 44.054688 49.574219 42.71875 49.574219 41.324219 L 49.574219 24.824219 C 49.574219 23.433594 50.128906 22.097656 51.113281 21.113281 C 52.097656 20.128906 53.433594 19.574219 54.824219 19.574219 Z M 54.824219 19.574219 " clip-rule="nonzero"/></clipPath><clipPath id="ce2249dda7"><path d="M 0.574219 0.574219 L 27.574219 0.574219 L 27.574219 27.574219 L 0.574219 27.574219 Z M 0.574219 0.574219 " clip-rule="nonzero"/></clipPath><clipPath id="43eb46c00c"><path d="M 5.824219 0.574219 L 22.324219 0.574219 C 23.71875 0.574219 25.054688 1.128906 26.039062 2.113281 C 27.023438 3.097656 27.574219 4.433594 27.574219 5.824219 L 27.574219 22.324219 C 27.574219 23.71875 27.023438 25.054688 26.039062 26.039062 C 25.054688 27.023438 23.71875 27.574219 22.324219 27.574219 L 5.824219 27.574219 C 4.433594 27.574219 3.097656 27.023438 2.113281 26.039062 C 1.128906 25.054688 0.574219 23.71875 0.574219 22.324219 L 0.574219 5.824219 C 0.574219 4.433594 1.128906 3.097656 2.113281 2.113281 C 3.097656 1.128906 4.433594 0.574219 5.824219 0.574219 Z M 5.824219 0.574219 " clip-rule="nonzero"/></clipPath><clipPath id="d90229392b"><rect x="0" width="28" y="0" height="28"/></clipPath><clipPath id="8e0101bde0"><path d="M 19.425781 19.574219 L 46.425781 19.574219 L 46.425781 46.574219 L 19.425781 46.574219 Z M 19.425781 19.574219 " clip-rule="nonzero"/></clipPath><clipPath id="f72eefe8f1"><path d="M 24.675781 19.574219 L 41.175781 19.574219 C 42.566406 19.574219 43.902344 20.128906 44.886719 21.113281 C 45.871094 22.097656 46.425781 23.433594 46.425781 24.824219 L 46.425781 41.324219 C 46.425781 42.71875 45.871094 44.054688 44.886719 45.039062 C 43.902344 46.023438 42.566406 46.574219 41.175781 46.574219 L 24.675781 46.574219 C 23.28125 46.574219 21.945312 46.023438 20.960938 45.039062 C 19.976562 44.054688 19.425781 42.71875 19.425781 41.324219 L 19.425781 24.824219 C 19.425781 23.433594 19.976562 22.097656 20.960938 21.113281 C 21.945312 20.128906 23.28125 19.574219 24.675781 19.574219 Z M 24.675781 19.574219 " clip-rule="nonzero"/></clipPath><clipPath id="2d580e753d"><path d="M 0.425781 0.574219 L 27.425781 0.574219 L 27.425781 27.574219 L 0.425781 27.574219 Z M 0.425781 0.574219 " clip-rule="nonzero"/></clipPath><clipPath id="5dd707634c"><path d="M 5.675781 0.574219 L 22.175781 0.574219 C 23.566406 0.574219 24.902344 1.128906 25.886719 2.113281 C 26.871094 3.097656 27.425781 4.433594 27.425781 5.824219 L 27.425781 22.324219 C 27.425781 23.71875 26.871094 25.054688 25.886719 26.039062 C 24.902344 27.023438 23.566406 27.574219 22.175781 27.574219 L 5.675781 27.574219 C 4.28125 27.574219 2.945312 27.023438 1.960938 26.039062 C 0.976562 25.054688 0.425781 23.71875 0.425781 22.324219 L 0.425781 5.824219 C 0.425781 4.433594 0.976562 3.097656 1.960938 2.113281 C 2.945312 1.128906 4.28125 0.574219 5.675781 0.574219 Z M 5.675781 0.574219 " clip-rule="nonzero"/></clipPath><clipPath id="05059a71ac"><rect x="0" width="28" y="0" height="28"/></clipPath><clipPath id="b8238ce4c3"><path d="M 19.425781 49.425781 L 46.425781 49.425781 L 46.425781 76.425781 L 19.425781 76.425781 Z M 19.425781 49.425781 " clip-rule="nonzero"/></clipPath><clipPath id="b683db261f"><path d="M 24.675781 49.425781 L 41.175781 49.425781 C 42.566406 49.425781 43.902344 49.976562 44.886719 50.960938 C 45.871094 51.945312 46.425781 53.28125 46.425781 54.675781 L 46.425781 71.175781 C 46.425781 72.566406 45.871094 73.902344 44.886719 74.886719 C 43.902344 75.871094 42.566406 76.425781 41.175781 76.425781 L 24.675781 76.425781 C 23.28125 76.425781 21.945312 75.871094 20.960938 74.886719 C 19.976562 73.902344 19.425781 72.566406 19.425781 71.175781 L 19.425781 54.675781 C 19.425781 53.28125 19.976562 51.945312 20.960938 50.960938 C 21.945312 49.976562 23.28125 49.425781 24.675781 49.425781 Z M 24.675781 49.425781 " clip-rule="nonzero"/></clipPath><clipPath id="78c06f0316"><path d="M 0.425781 0.425781 L 27.425781 0.425781 L 27.425781 27.425781 L 0.425781 27.425781 Z M 0.425781 0.425781 " clip-rule="nonzero"/></clipPath><clipPath id="13deadcb6b"><path d="M 5.675781 0.425781 L 22.175781 0.425781 C 23.566406 0.425781 24.902344 0.976562 25.886719 1.960938 C 26.871094 2.945312 27.425781 4.28125 27.425781 5.675781 L 27.425781 22.175781 C 27.425781 23.566406 26.871094 24.902344 25.886719 25.886719 C 24.902344 26.871094 23.566406 27.425781 22.175781 27.425781 L 5.675781 27.425781 C 4.28125 27.425781 2.945312 26.871094 1.960938 25.886719 C 0.976562 24.902344 0.425781 23.566406 0.425781 22.175781 L 0.425781 5.675781 C 0.425781 4.28125 0.976562 2.945312 1.960938 1.960938 C 2.945312 0.976562 4.28125 0.425781 5.675781 0.425781 Z M 5.675781 0.425781 " clip-rule="nonzero"/></clipPath><clipPath id="5e3c366c20"><rect x="0" width="28" y="0" height="28"/></clipPath><clipPath id="efb31c995b"><path d="M 49.574219 49.425781 L 76.574219 49.425781 L 76.574219 76.425781 L 49.574219 76.425781 Z M 49.574219 49.425781 " clip-rule="nonzero"/></clipPath><clipPath id="e83af182df"><path d="M 54.824219 49.425781 L 71.324219 49.425781 C 72.71875 49.425781 74.054688 49.976562 75.039062 50.960938 C 76.023438 51.945312 76.574219 53.28125 76.574219 54.675781 L 76.574219 71.175781 C 76.574219 72.566406 76.023438 73.902344 75.039062 74.886719 C 74.054688 75.871094 72.71875 76.425781 71.324219 76.425781 L 54.824219 76.425781 C 53.433594 76.425781 52.097656 75.871094 51.113281 74.886719 C 50.128906 73.902344 49.574219 72.566406 49.574219 71.175781 L 49.574219 54.675781 C 49.574219 53.28125 50.128906 51.945312 51.113281 50.960938 C 52.097656 49.976562 53.433594 49.425781 54.824219 49.425781 Z M 54.824219 49.425781 " clip-rule="nonzero"/></clipPath><clipPath id="f3478ab46c"><path d="M 0.574219 0.425781 L 27.574219 0.425781 L 27.574219 27.425781 L 0.574219 27.425781 Z M 0.574219 0.425781 " clip-rule="nonzero"/></clipPath><clipPath id="17d1946f71"><path d="M 5.824219 0.425781 L 22.324219 0.425781 C 23.71875 0.425781 25.054688 0.976562 26.039062 1.960938 C 27.023438 2.945312 27.574219 4.28125 27.574219 5.675781 L 27.574219 22.175781 C 27.574219 23.566406 27.023438 24.902344 26.039062 25.886719 C 25.054688 26.871094 23.71875 27.425781 22.324219 27.425781 L 5.824219 27.425781 C 4.433594 27.425781 3.097656 26.871094 2.113281 25.886719 C 1.128906 24.902344 0.574219 23.566406 0.574219 22.175781 L 0.574219 5.675781 C 0.574219 4.28125 1.128906 2.945312 2.113281 1.960938 C 3.097656 0.976562 4.433594 0.425781 5.824219 0.425781 Z M 5.824219 0.425781 " clip-rule="nonzero"/></clipPath><clipPath id="c029fbe89b"><rect x="0" width="28" y="0" height="28"/></clipPath></defs><g clip-path="url(#bbbb84a6cf)"><g clip-path="url(#7c408b00e9)"><g transform="matrix(1, 0, 0, 1, 49, 19)"><g clip-path="url(#d90229392b)"><g clip-path="url(#ce2249dda7)"><g clip-path="url(#43eb46c00c)"><path fill="#ffffff" d="M 0.574219 0.574219 L 27.574219 0.574219 L 27.574219 27.574219 L 0.574219 27.574219 Z M 0.574219 0.574219 " fill-opacity="1" fill-rule="nonzero"/></g></g></g></g></g></g><g clip-path="url(#8e0101bde0)"><g clip-path="url(#f72eefe8f1)"><g transform="matrix(1, 0, 0, 1, 19, 19)"><g clip-path="url(#05059a71ac)"><g clip-path="url(#2d580e753d)"><g clip-path="url(#5dd707634c)"><path fill="#ffffff" d="M 0.425781 0.574219 L 27.425781 0.574219 L 27.425781 27.574219 L 0.425781 27.574219 Z M 0.425781 0.574219 " fill-opacity="1" fill-rule="nonzero"/></g></g></g></g></g></g><g clip-path="url(#b8238ce4c3)"><g clip-path="url(#b683db261f)"><g transform="matrix(1, 0, 0, 1, 19, 49)"><g clip-path="url(#5e3c366c20)"><g clip-path="url(#78c06f0316)"><g clip-path="url(#13deadcb6b)"><path fill="#ffffff" d="M 0.425781 0.425781 L 27.425781 0.425781 L 27.425781 27.425781 L 0.425781 27.425781 Z M 0.425781 0.425781 " fill-opacity="1" fill-rule="nonzero"/></g></g></g></g></g></g><g clip-path="url(#efb31c995b)"><g clip-path="url(#e83af182df)"><g transform="matrix(1, 0, 0, 1, 49, 49)"><g clip-path="url(#c029fbe89b)"><g clip-path="url(#f3478ab46c)"><g clip-path="url(#17d1946f71)"><path fill="#ffffff" d="M 0.574219 0.425781 L 27.574219 0.425781 L 27.574219 27.425781 L 0.574219 27.425781 Z M 0.574219 0.425781 " fill-opacity="1" fill-rule="nonzero"/></g></g></g></g></g></g></svg>